<?xml version="1.0" encoding="utf-8"?>
<!-- Generator: Adobe Illustrator 27.2.0, SVG Export Plug-In . SVG Version: 6.00 Build 0)  -->
<svg version="1.1" id="Layer_1" xmlns="http://www.w3.org/2000/svg" xmlns:xlink="http://www.w3.org/1999/xlink" x="0px" y="0px"
	 viewBox="0 0 15.6 577.6" style="enable-background:new 0 0 15.6 577.6;" xml:space="preserve">
<style type="text/css">
	.st0{fill:#FFFFFF;}
</style>
<path class="st0" d="M10,558.4c0.1-0.8-0.5-1.5-1.3-1.3c-0.4,0.1-0.8,0.4-0.9,0.9c-0.2,0.8,0.5,1.5,1.3,1.3
	C9.6,559.2,9.9,558.8,10,558.4z"/>
<path class="st0" d="M10,542.7c0.1-0.8-0.5-1.5-1.3-1.3c-0.4,0.1-0.8,0.4-0.9,0.9c-0.2,0.8,0.5,1.5,1.3,1.3
	C9.6,543.5,9.9,543.1,10,542.7z"/>
<path class="st0" d="M10,526.8c0.1-0.8-0.5-1.5-1.3-1.3c-0.4,0.1-0.8,0.4-0.9,0.9c-0.2,0.8,0.5,1.5,1.3,1.3
	C9.6,527.6,9.9,527.2,10,526.8z"/>
<path class="st0" d="M10.5,511.4c0.1-0.8-0.5-1.5-1.3-1.3c-0.4,0.1-0.8,0.4-0.9,0.9c-0.1,0.8,0.5,1.5,1.3,1.3
	C10,512.2,10.4,511.8,10.5,511.4z"/>
<path class="st0" d="M10.5,495.4c0.1-0.8-0.5-1.5-1.3-1.3c-0.4,0.1-0.8,0.4-0.9,0.9c-0.1,0.8,0.5,1.5,1.3,1.3
	C10,496.2,10.4,495.9,10.5,495.4z"/>
<path class="st0" d="M10.5,479.8c0.1-0.8-0.5-1.5-1.3-1.3c-0.4,0.1-0.8,0.4-0.9,0.9c-0.1,0.8,0.5,1.5,1.3,1.3
	C10,480.6,10.4,480.2,10.5,479.8z"/>
<path class="st0" d="M10.5,464.3c0.1-0.8-0.5-1.5-1.3-1.3c-0.4,0.1-0.8,0.4-0.9,0.9c-0.1,0.8,0.5,1.5,1.3,1.3
	C10,465.1,10.4,464.7,10.5,464.3z"/>
<path class="st0" d="M10.5,448.4c0.1-0.8-0.5-1.5-1.3-1.3c-0.4,0.1-0.8,0.4-0.9,0.9c-0.1,0.8,0.5,1.5,1.3,1.3
	C10,449.2,10.4,448.8,10.5,448.4z"/>
<path class="st0" d="M10.5,432.9c0.1-0.8-0.5-1.5-1.3-1.3c-0.4,0.1-0.8,0.4-0.9,0.9c-0.1,0.8,0.5,1.5,1.3,1.3
	C10,433.7,10.4,433.3,10.5,432.9z"/>
<path class="st0" d="M10.5,416.7c0.1-0.8-0.5-1.5-1.3-1.3c-0.4,0.1-0.8,0.4-0.9,0.9c-0.1,0.8,0.5,1.5,1.3,1.3
	C10,417.5,10.4,417.2,10.5,416.7z"/>
<path class="st0" d="M10.5,401.4c0.1-0.8-0.5-1.5-1.3-1.3c-0.4,0.1-0.8,0.4-0.9,0.9c-0.1,0.8,0.5,1.5,1.3,1.3
	C10,402.2,10.4,401.9,10.5,401.4z"/>
<path class="st0" d="M10.5,385.7c0.1-0.8-0.5-1.5-1.3-1.3c-0.4,0.1-0.8,0.4-0.9,0.9c-0.1,0.8,0.5,1.5,1.3,1.3
	C10,386.5,10.4,386.1,10.5,385.7z"/>
<path class="st0" d="M10.5,370.5c0.1-0.8-0.5-1.5-1.3-1.3c-0.4,0.1-0.8,0.4-0.9,0.9c-0.1,0.8,0.5,1.5,1.3,1.3
	C10,371.3,10.4,371,10.5,370.5z"/>
<path class="st0" d="M10.5,355.2c0.1-0.8-0.5-1.5-1.3-1.3c-0.4,0.1-0.8,0.4-0.9,0.9c-0.1,0.8,0.5,1.5,1.3,1.3
	C10,356,10.4,355.7,10.5,355.2z"/>
<path class="st0" d="M10.5,339.5c0.1-0.8-0.5-1.5-1.3-1.3c-0.4,0.1-0.8,0.4-0.9,0.9c-0.1,0.8,0.5,1.5,1.3,1.3
	C10,340.3,10.4,339.9,10.5,339.5z"/>
<path class="st0" d="M10.5,326.1c0.1-0.8-0.5-1.5-1.3-1.3c-0.4,0.1-0.8,0.4-0.9,0.9c-0.1,0.8,0.5,1.5,1.3,1.3
	C10,326.9,10.4,326.6,10.5,326.1z"/>
<path class="st0" d="M10.5,310.8c0.1-0.8-0.5-1.5-1.3-1.3c-0.4,0.1-0.8,0.4-0.9,0.9c-0.1,0.8,0.5,1.5,1.3,1.3
	C10,311.6,10.4,311.3,10.5,310.8z"/>
<path class="st0" d="M10.5,295.1c0.1-0.8-0.5-1.5-1.3-1.3c-0.4,0.1-0.8,0.4-0.9,0.9c-0.1,0.8,0.5,1.5,1.3,1.3
	C10,295.9,10.4,295.5,10.5,295.1z"/>
<path class="st0" d="M10.5,279.4c0.1-0.8-0.5-1.5-1.3-1.3c-0.4,0.1-0.8,0.4-0.9,0.9c-0.1,0.8,0.5,1.5,1.3,1.3
	C10,280.2,10.4,279.8,10.5,279.4z"/>
<path class="st0" d="M10.5,266c0.1-0.8-0.5-1.5-1.3-1.3c-0.4,0.1-0.8,0.4-0.9,0.9c-0.1,0.8,0.5,1.5,1.3,1.3
	C10,266.8,10.4,266.5,10.5,266z"/>
<path class="st0" d="M10.5,250.7c0.1-0.8-0.5-1.5-1.3-1.3c-0.4,0.1-0.8,0.4-0.9,0.9c-0.1,0.8,0.5,1.5,1.3,1.3
	C10,251.5,10.4,251.2,10.5,250.7z"/>
<path class="st0" d="M10.5,235c0.1-0.8-0.5-1.5-1.3-1.3c-0.4,0.1-0.8,0.4-0.9,0.9c-0.1,0.8,0.5,1.5,1.3,1.3
	C10,235.8,10.4,235.4,10.5,235z"/>
<path class="st0" d="M10.5,219.3c0.1-0.8-0.5-1.5-1.3-1.3c-0.4,0.1-0.8,0.4-0.9,0.9c-0.1,0.8,0.5,1.5,1.3,1.3
	C10,220.1,10.4,219.8,10.5,219.3z"/>
<path class="st0" d="M10.5,204c0.1-0.8-0.5-1.5-1.3-1.3c-0.4,0.1-0.8,0.4-0.9,0.9c-0.1,0.8,0.5,1.5,1.3,1.3
	C10,204.8,10.4,204.5,10.5,204z"/>
<path class="st0" d="M10.5,188.3c0.1-0.8-0.5-1.5-1.3-1.3c-0.4,0.1-0.8,0.4-0.9,0.9c-0.1,0.8,0.5,1.5,1.3,1.3
	C10,189.1,10.4,188.7,10.5,188.3z"/>
<path class="st0" d="M10.5,173.1c0.1-0.8-0.5-1.5-1.3-1.3c-0.4,0.1-0.8,0.4-0.9,0.9c-0.1,0.8,0.5,1.5,1.3,1.3
	C10,173.9,10.4,173.6,10.5,173.1z"/>
<path class="st0" d="M10.5,157.8c0.1-0.8-0.5-1.5-1.3-1.3c-0.4,0.1-0.8,0.4-0.9,0.9c-0.1,0.8,0.5,1.5,1.3,1.3
	C10,158.6,10.4,158.3,10.5,157.8z"/>
<path class="st0" d="M10.5,142.1c0.1-0.8-0.5-1.5-1.3-1.3c-0.4,0.1-0.8,0.4-0.9,0.9c-0.1,0.8,0.5,1.5,1.3,1.3
	C10,142.9,10.4,142.5,10.5,142.1z"/>
<path class="st0" d="M10.5,128.7c0.1-0.8-0.5-1.5-1.3-1.3c-0.4,0.1-0.8,0.4-0.9,0.9c-0.1,0.8,0.5,1.5,1.3,1.3
	C10,129.5,10.4,129.2,10.5,128.7z"/>
<path class="st0" d="M10.5,113.4c0.1-0.8-0.5-1.5-1.3-1.3c-0.4,0.1-0.8,0.4-0.9,0.9c-0.1,0.8,0.5,1.5,1.3,1.3
	C10,114.2,10.4,113.9,10.5,113.4z"/>
<path class="st0" d="M10.5,97.7c0.1-0.8-0.5-1.5-1.3-1.3c-0.4,0.1-0.8,0.4-0.9,0.9c-0.1,0.8,0.5,1.5,1.3,1.3
	C10,98.5,10.4,98.1,10.5,97.7z"/>
<path class="st0" d="M10.5,82c0.1-0.8-0.5-1.5-1.3-1.3c-0.4,0.1-0.8,0.4-0.9,0.9c-0.1,0.8,0.5,1.5,1.3,1.3
	C10,82.8,10.4,82.4,10.5,82z"/>
<path class="st0" d="M10.5,68.6c0.1-0.8-0.5-1.5-1.3-1.3c-0.4,0.1-0.8,0.4-0.9,0.9c-0.1,0.8,0.5,1.5,1.3,1.3
	C10,69.4,10.4,69.1,10.5,68.6z"/>
<path class="st0" d="M10.5,53.3c0.1-0.8-0.5-1.5-1.3-1.3c-0.4,0.1-0.8,0.4-0.9,0.9c-0.1,0.8,0.5,1.5,1.3,1.3
	C10,54.1,10.4,53.8,10.5,53.3z"/>
<path class="st0" d="M10.5,37.6c0.1-0.8-0.5-1.5-1.3-1.3c-0.4,0.1-0.8,0.4-0.9,0.9c-0.1,0.8,0.5,1.5,1.3,1.3
	C10,38.4,10.4,38,10.5,37.6z"/>
<path class="st0" d="M10.5,22.4c0.1-0.8-0.5-1.5-1.3-1.3c-0.4,0.1-0.8,0.4-0.9,0.9c-0.1,0.8,0.5,1.5,1.3,1.3
	C10,23.2,10.4,22.8,10.5,22.4z"/>
<path class="st0" d="M10.5,9c0.1-0.8-0.5-1.5-1.3-1.3C8.8,7.8,8.4,8.1,8.3,8.6c-0.1,0.8,0.5,1.5,1.3,1.3C10,9.8,10.4,9.5,10.5,9z"/>
<polygon class="st0" points="15.6,566.9 14.6,565.8 7.8,572.6 1,565.8 0,566.8 7.8,574.7 "/>
</svg>
