<?xml version="1.0" encoding="utf-8"?>
<!-- Generator: Adobe Illustrator 27.2.0, SVG Export Plug-In . SVG Version: 6.00 Build 0)  -->
<svg version="1.1" id="Layer_1" xmlns="http://www.w3.org/2000/svg" xmlns:xlink="http://www.w3.org/1999/xlink" x="0px" y="0px"
	 viewBox="0 0 15.6 274.5" style="enable-background:new 0 0 15.6 274.5;" xml:space="preserve">
<style type="text/css">
	.st0{fill:#542A7D;}
</style>
<path class="st0" d="M10,255.3c0.1-0.8-0.5-1.5-1.3-1.3c-0.4,0.1-0.8,0.4-0.9,0.9c-0.2,0.8,0.5,1.5,1.3,1.3
	C9.6,256.1,9.9,255.7,10,255.3z"/>
<path class="st0" d="M10,239.6c0.1-0.8-0.5-1.5-1.3-1.3c-0.4,0.1-0.8,0.4-0.9,0.9c-0.2,0.8,0.5,1.5,1.3,1.3
	C9.6,240.4,9.9,240,10,239.6z"/>
<path class="st0" d="M10,223.7c0.1-0.8-0.5-1.5-1.3-1.3c-0.4,0.1-0.8,0.4-0.9,0.9c-0.2,0.8,0.5,1.5,1.3,1.3
	C9.6,224.5,9.9,224.1,10,223.7z"/>
<path class="st0" d="M10.5,208.3c0.1-0.8-0.5-1.5-1.3-1.3c-0.4,0.1-0.8,0.4-0.9,0.9c-0.1,0.8,0.5,1.5,1.3,1.3
	C10,209.1,10.4,208.7,10.5,208.3z"/>
<path class="st0" d="M10.5,192.3c0.1-0.8-0.5-1.5-1.3-1.3c-0.4,0.1-0.8,0.4-0.9,0.9c-0.1,0.8,0.5,1.5,1.3,1.3
	C10,193.1,10.4,192.8,10.5,192.3z"/>
<path class="st0" d="M10.5,176.7c0.1-0.8-0.5-1.5-1.3-1.3c-0.4,0.1-0.8,0.4-0.9,0.9c-0.1,0.8,0.5,1.5,1.3,1.3
	C10,177.5,10.4,177.1,10.5,176.7z"/>
<path class="st0" d="M10.5,161.2c0.1-0.8-0.5-1.5-1.3-1.3c-0.4,0.1-0.8,0.4-0.9,0.9c-0.1,0.8,0.5,1.5,1.3,1.3
	C10,162,10.4,161.6,10.5,161.2z"/>
<path class="st0" d="M10.5,145.3c0.1-0.8-0.5-1.5-1.3-1.3c-0.4,0.1-0.8,0.4-0.9,0.9c-0.1,0.8,0.5,1.5,1.3,1.3
	C10,146.1,10.4,145.7,10.5,145.3z"/>
<path class="st0" d="M10.5,129.8c0.1-0.8-0.5-1.5-1.3-1.3c-0.4,0.1-0.8,0.4-0.9,0.9c-0.1,0.8,0.5,1.5,1.3,1.3
	C10,130.6,10.4,130.2,10.5,129.8z"/>
<path class="st0" d="M10.5,113.6c0.1-0.8-0.5-1.5-1.3-1.3c-0.4,0.1-0.8,0.4-0.9,0.9c-0.1,0.8,0.5,1.5,1.3,1.3
	C10,114.4,10.4,114.1,10.5,113.6z"/>
<path class="st0" d="M10.5,98.3c0.1-0.8-0.5-1.5-1.3-1.3c-0.4,0.1-0.8,0.4-0.9,0.9c-0.1,0.8,0.5,1.5,1.3,1.3
	C10,99.1,10.4,98.8,10.5,98.3z"/>
<path class="st0" d="M10.5,82.6c0.1-0.8-0.5-1.5-1.3-1.3c-0.4,0.1-0.8,0.4-0.9,0.9c-0.1,0.8,0.5,1.5,1.3,1.3
	C10,83.4,10.4,83,10.5,82.6z"/>
<path class="st0" d="M10.5,67.4c0.1-0.8-0.5-1.5-1.3-1.3c-0.4,0.1-0.8,0.4-0.9,0.9c-0.1,0.8,0.5,1.5,1.3,1.3
	C10,68.2,10.4,67.9,10.5,67.4z"/>
<path class="st0" d="M10.5,52.1c0.1-0.8-0.5-1.5-1.3-1.3c-0.4,0.1-0.8,0.4-0.9,0.9c-0.1,0.8,0.5,1.5,1.3,1.3
	C10,52.9,10.4,52.6,10.5,52.1z"/>
<path class="st0" d="M10.5,36.4c0.1-0.8-0.5-1.5-1.3-1.3c-0.4,0.1-0.8,0.4-0.9,0.9c-0.1,0.8,0.5,1.5,1.3,1.3
	C10,37.2,10.4,36.8,10.5,36.4z"/>
<path class="st0" d="M10.5,23c0.1-0.8-0.5-1.5-1.3-1.3c-0.4,0.1-0.8,0.4-0.9,0.9c-0.1,0.8,0.5,1.5,1.3,1.3
	C10,23.8,10.4,23.5,10.5,23z"/>
<path class="st0" d="M10.5,7.7c0.1-0.8-0.5-1.5-1.3-1.3C8.8,6.5,8.4,6.8,8.3,7.3C8.2,8.1,8.8,8.8,9.6,8.6C10,8.5,10.4,8.2,10.5,7.7z
	"/>
<path class="st0" d="M10.5-8c0.1-0.8-0.5-1.5-1.3-1.3C8.8-9.2,8.4-8.9,8.3-8.4C8.2-7.6,8.8-6.9,9.6-7.1C10-7.2,10.4-7.6,10.5-8z"/>
<polygon class="st0" points="15.6,263.8 14.6,262.7 7.8,269.5 1,262.7 0,263.7 7.8,271.6 "/>
</svg>
