<?xml version="1.0" encoding="utf-8"?>
<!-- Generator: Adobe Illustrator 27.2.0, SVG Export Plug-In . SVG Version: 6.00 Build 0)  -->
<svg version="1.1" id="Layer_1" xmlns="http://www.w3.org/2000/svg" xmlns:xlink="http://www.w3.org/1999/xlink" x="0px" y="0px"
	 viewBox="0 0 15.6 475" style="enable-background:new 0 0 15.6 475;" xml:space="preserve">
<style type="text/css">
	.st0{fill:#542A7D;}
</style>
<path class="st0" d="M10,455.8c0.1-0.8-0.5-1.5-1.3-1.3c-0.4,0.1-0.8,0.4-0.9,0.9c-0.2,0.8,0.5,1.5,1.3,1.3
	C9.6,456.6,9.9,456.2,10,455.8z"/>
<path class="st0" d="M10,440.1c0.1-0.8-0.5-1.5-1.3-1.3c-0.4,0.1-0.8,0.4-0.9,0.9c-0.2,0.8,0.5,1.5,1.3,1.3
	C9.6,440.9,9.9,440.5,10,440.1z"/>
<path class="st0" d="M10,424.2c0.1-0.8-0.5-1.5-1.3-1.3c-0.4,0.1-0.8,0.4-0.9,0.9c-0.2,0.8,0.5,1.5,1.3,1.3
	C9.6,425,9.9,424.6,10,424.2z"/>
<path class="st0" d="M10.5,408.8c0.1-0.8-0.5-1.5-1.3-1.3c-0.4,0.1-0.8,0.4-0.9,0.9c-0.1,0.8,0.5,1.5,1.3,1.3
	C10,409.6,10.4,409.2,10.5,408.8z"/>
<path class="st0" d="M10.5,392.8c0.1-0.8-0.5-1.5-1.3-1.3c-0.4,0.1-0.8,0.4-0.9,0.9c-0.1,0.8,0.5,1.5,1.3,1.3
	C10,393.6,10.4,393.3,10.5,392.8z"/>
<path class="st0" d="M10.5,377.2c0.1-0.8-0.5-1.5-1.3-1.3c-0.4,0.1-0.8,0.4-0.9,0.9c-0.1,0.8,0.5,1.5,1.3,1.3
	C10,378,10.4,377.6,10.5,377.2z"/>
<path class="st0" d="M10.5,361.7c0.1-0.8-0.5-1.5-1.3-1.3c-0.4,0.1-0.8,0.4-0.9,0.9c-0.1,0.8,0.5,1.5,1.3,1.3
	C10,362.5,10.4,362.1,10.5,361.7z"/>
<path class="st0" d="M10.5,345.8c0.1-0.8-0.5-1.5-1.3-1.3c-0.4,0.1-0.8,0.4-0.9,0.9c-0.1,0.8,0.5,1.5,1.3,1.3
	C10,346.6,10.4,346.2,10.5,345.8z"/>
<path class="st0" d="M10.5,330.3c0.1-0.8-0.5-1.5-1.3-1.3c-0.4,0.1-0.8,0.4-0.9,0.9c-0.1,0.8,0.5,1.5,1.3,1.3
	C10,331.1,10.4,330.7,10.5,330.3z"/>
<path class="st0" d="M10.5,314.1c0.1-0.8-0.5-1.5-1.3-1.3c-0.4,0.1-0.8,0.4-0.9,0.9c-0.1,0.8,0.5,1.5,1.3,1.3
	C10,314.9,10.4,314.6,10.5,314.1z"/>
<path class="st0" d="M10.5,298.8c0.1-0.8-0.5-1.5-1.3-1.3c-0.4,0.1-0.8,0.4-0.9,0.9c-0.1,0.8,0.5,1.5,1.3,1.3
	C10,299.6,10.4,299.3,10.5,298.8z"/>
<path class="st0" d="M10.5,283.1c0.1-0.8-0.5-1.5-1.3-1.3c-0.4,0.1-0.8,0.4-0.9,0.9c-0.1,0.8,0.5,1.5,1.3,1.3
	C10,283.9,10.4,283.5,10.5,283.1z"/>
<path class="st0" d="M10.5,267.9c0.1-0.8-0.5-1.5-1.3-1.3c-0.4,0.1-0.8,0.4-0.9,0.9c-0.1,0.8,0.5,1.5,1.3,1.3
	C10,268.7,10.4,268.4,10.5,267.9z"/>
<path class="st0" d="M10.5,252.6c0.1-0.8-0.5-1.5-1.3-1.3c-0.4,0.1-0.8,0.4-0.9,0.9c-0.1,0.8,0.5,1.5,1.3,1.3
	C10,253.4,10.4,253.1,10.5,252.6z"/>
<path class="st0" d="M10.5,236.9c0.1-0.8-0.5-1.5-1.3-1.3c-0.4,0.1-0.8,0.4-0.9,0.9c-0.1,0.8,0.5,1.5,1.3,1.3
	C10,237.7,10.4,237.3,10.5,236.9z"/>
<path class="st0" d="M10.5,223.5c0.1-0.8-0.5-1.5-1.3-1.3c-0.4,0.1-0.8,0.4-0.9,0.9c-0.1,0.8,0.5,1.5,1.3,1.3
	C10,224.3,10.4,224,10.5,223.5z"/>
<path class="st0" d="M10.5,208.2c0.1-0.8-0.5-1.5-1.3-1.3c-0.4,0.1-0.8,0.4-0.9,0.9c-0.1,0.8,0.5,1.5,1.3,1.3
	C10,209,10.4,208.7,10.5,208.2z"/>
<path class="st0" d="M10.5,192.5c0.1-0.8-0.5-1.5-1.3-1.3c-0.4,0.1-0.8,0.4-0.9,0.9c-0.1,0.8,0.5,1.5,1.3,1.3
	C10,193.3,10.4,192.9,10.5,192.5z"/>
<path class="st0" d="M11.1,176.8c0.1-0.8-0.5-1.5-1.3-1.3c-0.4,0.1-0.8,0.4-0.9,0.9c-0.1,0.8,0.5,1.5,1.3,1.3
	C10.6,177.6,11,177.3,11.1,176.8z"/>
<path class="st0" d="M11.1,161.2c0.1-0.8-0.5-1.5-1.3-1.3c-0.4,0.1-0.8,0.4-0.9,0.9c-0.1,0.8,0.5,1.5,1.3,1.3
	C10.6,162,11,161.6,11.1,161.2z"/>
<path class="st0" d="M11.1,145.7c0.1-0.8-0.5-1.5-1.3-1.3c-0.4,0.1-0.8,0.4-0.9,0.9c-0.1,0.8,0.5,1.5,1.3,1.3
	C10.6,146.5,11,146.1,11.1,145.7z"/>
<path class="st0" d="M11.1,129.8c0.1-0.8-0.5-1.5-1.3-1.3c-0.4,0.1-0.8,0.4-0.9,0.9c-0.1,0.8,0.5,1.5,1.3,1.3
	C10.6,130.6,11,130.2,11.1,129.8z"/>
<path class="st0" d="M11.1,114.3c0.1-0.8-0.5-1.5-1.3-1.3c-0.4,0.1-0.8,0.4-0.9,0.9c-0.1,0.8,0.5,1.5,1.3,1.3
	C10.6,115.1,11,114.7,11.1,114.3z"/>
<path class="st0" d="M11.1,98.1c0.1-0.8-0.5-1.5-1.3-1.3c-0.4,0.1-0.8,0.4-0.9,0.9c-0.1,0.8,0.5,1.5,1.3,1.3
	C10.6,98.9,11,98.6,11.1,98.1z"/>
<path class="st0" d="M11.1,82.8c0.1-0.8-0.5-1.5-1.3-1.3c-0.4,0.1-0.8,0.4-0.9,0.9c-0.1,0.8,0.5,1.5,1.3,1.3
	C10.6,83.6,11,83.3,11.1,82.8z"/>
<path class="st0" d="M11.1,67.1c0.1-0.8-0.5-1.5-1.3-1.3c-0.4,0.1-0.8,0.4-0.9,0.9c-0.1,0.8,0.5,1.5,1.3,1.3
	C10.6,67.9,11,67.5,11.1,67.1z"/>
<path class="st0" d="M11.1,51.9c0.1-0.8-0.5-1.5-1.3-1.3C9.4,50.7,9,51,8.9,51.5c-0.1,0.8,0.5,1.5,1.3,1.3
	C10.6,52.7,11,52.4,11.1,51.9z"/>
<path class="st0" d="M11.1,36.6c0.1-0.8-0.5-1.5-1.3-1.3c-0.4,0.1-0.8,0.4-0.9,0.9c-0.1,0.8,0.5,1.5,1.3,1.3
	C10.6,37.4,11,37.1,11.1,36.6z"/>
<path class="st0" d="M11.1,20.9c0.1-0.8-0.5-1.5-1.3-1.3C9.4,19.7,9,20,8.9,20.5c-0.1,0.8,0.5,1.5,1.3,1.3
	C10.6,21.7,11,21.3,11.1,20.9z"/>
<path class="st0" d="M11.1,7.5c0.1-0.8-0.5-1.5-1.3-1.3C9.4,6.3,9,6.6,8.9,7.1c-0.1,0.8,0.5,1.5,1.3,1.3C10.6,8.3,11,8,11.1,7.5z"/>
<polygon class="st0" points="15.6,464.3 14.6,463.2 7.8,470 1,463.2 0,464.2 7.8,472.1 "/>
</svg>
