<?xml version="1.0" encoding="utf-8"?>
<!-- Generator: Adobe Illustrator 27.2.0, SVG Export Plug-In . SVG Version: 6.00 Build 0)  -->
<svg version="1.1" id="Layer_1" xmlns="http://www.w3.org/2000/svg" xmlns:xlink="http://www.w3.org/1999/xlink" x="0px" y="0px"
	 viewBox="0 0 393.2 313.4" style="enable-background:new 0 0 393.2 313.4;" xml:space="preserve">
<style type="text/css">
	.st0{fill:#5A03D6;}
</style>
<path class="st0" d="M329.5,137.8c-0.8-0.1-1.5,0.5-1.3,1.3c0.1,0.4,0.4,0.8,0.9,0.9c0.8,0.2,1.5-0.5,1.3-1.3
	C330.3,138.2,329.9,137.9,329.5,137.8z"/>
<path class="st0" d="M313.8,137.8c-0.8-0.1-1.5,0.5-1.3,1.3c0.1,0.4,0.4,0.8,0.9,0.9c0.8,0.2,1.5-0.5,1.3-1.3
	C314.6,138.2,314.2,137.9,313.8,137.8z"/>
<path class="st0" d="M297.9,137.8c-0.8-0.1-1.5,0.5-1.3,1.3c0.1,0.4,0.4,0.8,0.9,0.9c0.8,0.2,1.5-0.5,1.3-1.3
	C298.7,138.2,298.3,137.9,297.9,137.8z"/>
<path class="st0" d="M282.5,137.3c-0.8-0.1-1.5,0.5-1.3,1.3c0.1,0.4,0.4,0.8,0.9,0.9c0.8,0.1,1.5-0.5,1.3-1.3
	C283.3,137.8,282.9,137.4,282.5,137.3z"/>
<path class="st0" d="M266.5,137.3c-0.8-0.1-1.5,0.5-1.3,1.3c0.1,0.4,0.4,0.8,0.9,0.9c0.8,0.1,1.5-0.5,1.3-1.3
	C267.3,137.8,267,137.4,266.5,137.3z"/>
<path class="st0" d="M250.9,137.3c-0.8-0.1-1.5,0.5-1.3,1.3c0.1,0.4,0.4,0.8,0.9,0.9c0.8,0.1,1.5-0.5,1.3-1.3
	C251.7,137.8,251.3,137.4,250.9,137.3z"/>
<path class="st0" d="M235.4,137.3c-0.8-0.1-1.5,0.5-1.3,1.3c0.1,0.4,0.4,0.8,0.9,0.9c0.8,0.1,1.5-0.5,1.3-1.3
	C236.2,137.8,235.8,137.4,235.4,137.3z"/>
<path class="st0" d="M219.5,137.3c-0.8-0.1-1.5,0.5-1.3,1.3c0.1,0.4,0.4,0.8,0.9,0.9c0.8,0.1,1.5-0.5,1.3-1.3
	C220.3,137.8,219.9,137.4,219.5,137.3z"/>
<path class="st0" d="M204,137.3c-0.8-0.1-1.5,0.5-1.3,1.3c0.1,0.4,0.4,0.8,0.9,0.9c0.8,0.1,1.5-0.5,1.3-1.3
	C204.8,137.8,204.4,137.4,204,137.3z"/>
<path class="st0" d="M187.8,137.3c-0.8-0.1-1.5,0.5-1.3,1.3c0.1,0.4,0.4,0.8,0.9,0.9c0.8,0.1,1.5-0.5,1.3-1.3
	C188.6,137.8,188.3,137.4,187.8,137.3z"/>
<path class="st0" d="M172.5,137.3c-0.8-0.1-1.5,0.5-1.3,1.3c0.1,0.4,0.4,0.8,0.9,0.9c0.8,0.1,1.5-0.5,1.3-1.3
	C173.3,137.8,173,137.4,172.5,137.3z"/>
<path class="st0" d="M156.8,137.3c-0.8-0.1-1.5,0.5-1.3,1.3c0.1,0.4,0.4,0.8,0.9,0.9c0.8,0.1,1.5-0.5,1.3-1.3
	C157.6,137.8,157.2,137.4,156.8,137.3z"/>
<path class="st0" d="M141.6,137.3c-0.8-0.1-1.5,0.5-1.3,1.3c0.1,0.4,0.4,0.8,0.9,0.9c0.8,0.1,1.5-0.5,1.3-1.3
	C142.4,137.8,142.1,137.4,141.6,137.3z"/>
<path class="st0" d="M126.3,137.3c-0.8-0.1-1.5,0.5-1.3,1.3c0.1,0.4,0.4,0.8,0.9,0.9c0.8,0.1,1.5-0.5,1.3-1.3
	C127.1,137.8,126.8,137.4,126.3,137.3z"/>
<path class="st0" d="M110.6,137.3c-0.8-0.1-1.5,0.5-1.3,1.3c0.1,0.4,0.4,0.8,0.9,0.9c0.8,0.1,1.5-0.5,1.3-1.3
	C111.4,137.8,111,137.4,110.6,137.3z"/>
<path class="st0" d="M97.2,137.3c-0.8-0.1-1.5,0.5-1.3,1.3c0.1,0.4,0.4,0.8,0.9,0.9c0.8,0.1,1.5-0.5,1.3-1.3
	C98,137.8,97.7,137.4,97.2,137.3z"/>
<path class="st0" d="M81.9,137.3c-0.8-0.1-1.5,0.5-1.3,1.3c0.1,0.4,0.4,0.8,0.9,0.9c0.8,0.1,1.5-0.5,1.3-1.3
	C82.7,137.8,82.4,137.4,81.9,137.3z"/>
<path class="st0" d="M66.2,137.3c-0.8-0.1-1.5,0.5-1.3,1.3c0.1,0.4,0.4,0.8,0.9,0.9c0.8,0.1,1.5-0.5,1.3-1.3
	C67,137.8,66.6,137.4,66.2,137.3z"/>
<path class="st0" d="M50.5,137.3c-0.8-0.1-1.5,0.5-1.3,1.3c0.1,0.4,0.4,0.8,0.9,0.9c0.8,0.1,1.5-0.5,1.3-1.3
	C51.3,137.8,50.9,137.4,50.5,137.3z"/>
<path class="st0" d="M37.1,137.3c-0.8-0.1-1.5,0.5-1.3,1.3c0.1,0.4,0.4,0.8,0.9,0.9c0.8,0.1,1.5-0.5,1.3-1.3
	C37.9,137.8,37.6,137.4,37.1,137.3z"/>
<path class="st0" d="M21.8,137.3c-0.8-0.1-1.5,0.5-1.3,1.3c0.1,0.4,0.4,0.8,0.9,0.9c0.8,0.1,1.5-0.5,1.3-1.3
	C22.6,137.8,22.3,137.4,21.8,137.3z"/>
<path class="st0" d="M6.1,137.3c-0.8-0.1-1.5,0.5-1.3,1.3c0.1,0.4,0.4,0.8,0.9,0.9c0.8,0.1,1.5-0.5,1.3-1.3
	C6.9,137.8,6.5,137.4,6.1,137.3z"/>
<polygon class="st0" points="338,132.2 336.9,133.2 343.7,140 336.9,146.8 337.9,147.8 345.8,140 "/>
</svg>
