<?xml version="1.0" encoding="UTF-8"?>
<svg id="Layer_1" data-name="Layer 1" xmlns="http://www.w3.org/2000/svg" viewBox="0 0 24.83 5.99">
  <path d="m18.57,2.15c-.31-.04-.58.19-.5.5.04.15.15.31.35.35.31.08.58-.19.5-.5-.04-.19-.19-.31-.35-.35Z" style="fill: #fff;"/>
  <path d="m12.54,2.15c-.31-.04-.58.19-.5.5.04.15.15.31.35.35.31.08.58-.19.5-.5-.04-.19-.19-.31-.35-.35Z" style="fill: #fff;"/>
  <path d="m6.43,2.15c-.31-.04-.58.19-.5.5.04.15.15.31.35.35.31.08.58-.19.5-.5-.04-.19-.19-.31-.35-.35Z" style="fill: #fff;"/>
  <path d="m.51,1.96c-.31-.04-.58.19-.5.5.04.15.15.31.35.35.31.04.58-.19.5-.5-.04-.15-.19-.31-.35-.35Z" style="fill: #fff;"/>
  <polygon points="21.84 0 21.41 .38 24.03 3 21.41 5.61 21.8 5.99 24.83 3 21.84 0" style="fill: #fff;"/>
</svg>