<?xml version="1.0" encoding="UTF-8"?>
<svg id="Layer_1" data-name="Layer 1" xmlns="http://www.w3.org/2000/svg" viewBox="0 0 27.91 7.68">
  <path d="m7.24,4.31c.31.04.58-.19.5-.5-.04-.15-.15-.31-.35-.35-.31-.08-.58.19-.5.5.04.19.19.31.35.35Z" style="fill: #fff;"/>
  <path d="m13.28,4.31c.31.04.58-.19.5-.5-.04-.15-.15-.31-.35-.35-.31-.08-.58.19-.5.5.04.19.19.31.35.35Z" style="fill: #fff;"/>
  <path d="m19.38,4.31c.31.04.58-.19.5-.5-.04-.15-.15-.31-.35-.35-.31-.08-.58.19-.5.5.04.19.19.31.35.35Z" style="fill: #fff;"/>
  <path d="m25.3,4.51c.31.04.58-.19.5-.5-.04-.15-.15-.31-.35-.35-.31-.04-.58.19-.5.5.04.15.19.31.35.35Z" style="fill: #fff;"/>
  <polygon points="3.98 6.47 4.4 6.08 1.79 3.47 4.4 .86 4.02 .47 .98 3.47 3.98 6.47" style="fill: #fff;"/>
</svg>