<?xml version="1.0" encoding="utf-8"?>
<!-- Generator: Adobe Illustrator 27.2.0, SVG Export Plug-In . SVG Version: 6.00 Build 0)  -->
<svg version="1.1" id="Layer_1" xmlns="http://www.w3.org/2000/svg" xmlns:xlink="http://www.w3.org/1999/xlink" x="0px" y="0px"
	 viewBox="0 0 15.6 313.4" style="enable-background:new 0 0 15.6 313.4;" xml:space="preserve">
<style type="text/css">
	.st0{fill:#FFFFFF;}
</style>
<path class="st0" d="M10,294.2c0.1-0.8-0.5-1.5-1.3-1.3c-0.4,0.1-0.8,0.4-0.9,0.9c-0.2,0.8,0.5,1.5,1.3,1.3
	C9.6,295,9.9,294.6,10,294.2z"/>
<path class="st0" d="M10,278.5c0.1-0.8-0.5-1.5-1.3-1.3c-0.4,0.1-0.8,0.4-0.9,0.9c-0.2,0.8,0.5,1.5,1.3,1.3
	C9.6,279.3,9.9,278.9,10,278.5z"/>
<path class="st0" d="M10,262.6c0.1-0.8-0.5-1.5-1.3-1.3c-0.4,0.1-0.8,0.4-0.9,0.9c-0.2,0.8,0.5,1.5,1.3,1.3
	C9.6,263.4,9.9,263,10,262.6z"/>
<path class="st0" d="M10.5,247.2c0.1-0.8-0.5-1.5-1.3-1.3c-0.4,0.1-0.8,0.4-0.9,0.9c-0.1,0.8,0.5,1.5,1.3,1.3
	C10,248,10.4,247.6,10.5,247.2z"/>
<path class="st0" d="M10.5,231.2c0.1-0.8-0.5-1.5-1.3-1.3c-0.4,0.1-0.8,0.4-0.9,0.9c-0.1,0.8,0.5,1.5,1.3,1.3
	C10,232,10.4,231.7,10.5,231.2z"/>
<path class="st0" d="M10.5,215.6c0.1-0.8-0.5-1.5-1.3-1.3c-0.4,0.1-0.8,0.4-0.9,0.9c-0.1,0.8,0.5,1.5,1.3,1.3
	C10,216.4,10.4,216,10.5,215.6z"/>
<path class="st0" d="M10.5,200.1c0.1-0.8-0.5-1.5-1.3-1.3c-0.4,0.1-0.8,0.4-0.9,0.9c-0.1,0.8,0.5,1.5,1.3,1.3
	C10,200.9,10.4,200.5,10.5,200.1z"/>
<path class="st0" d="M10.5,184.2c0.1-0.8-0.5-1.5-1.3-1.3c-0.4,0.1-0.8,0.4-0.9,0.9c-0.1,0.8,0.5,1.5,1.3,1.3
	C10,185,10.4,184.6,10.5,184.2z"/>
<path class="st0" d="M10.5,168.7c0.1-0.8-0.5-1.5-1.3-1.3c-0.4,0.1-0.8,0.4-0.9,0.9c-0.1,0.8,0.5,1.5,1.3,1.3
	C10,169.5,10.4,169.1,10.5,168.7z"/>
<path class="st0" d="M10.5,152.5c0.1-0.8-0.5-1.5-1.3-1.3c-0.4,0.1-0.8,0.4-0.9,0.9c-0.1,0.8,0.5,1.5,1.3,1.3
	C10,153.3,10.4,153,10.5,152.5z"/>
<path class="st0" d="M10.5,137.2c0.1-0.8-0.5-1.5-1.3-1.3c-0.4,0.1-0.8,0.4-0.9,0.9c-0.1,0.8,0.5,1.5,1.3,1.3
	C10,138,10.4,137.7,10.5,137.2z"/>
<path class="st0" d="M10.5,121.5c0.1-0.8-0.5-1.5-1.3-1.3c-0.4,0.1-0.8,0.4-0.9,0.9c-0.1,0.8,0.5,1.5,1.3,1.3
	C10,122.3,10.4,121.9,10.5,121.5z"/>
<path class="st0" d="M10.5,106.3c0.1-0.8-0.5-1.5-1.3-1.3c-0.4,0.1-0.8,0.4-0.9,0.9c-0.1,0.8,0.5,1.5,1.3,1.3
	C10,107.1,10.4,106.8,10.5,106.3z"/>
<path class="st0" d="M10.5,91c0.1-0.8-0.5-1.5-1.3-1.3c-0.4,0.1-0.8,0.4-0.9,0.9c-0.1,0.8,0.5,1.5,1.3,1.3
	C10,91.8,10.4,91.5,10.5,91z"/>
<path class="st0" d="M10.5,75.3c0.1-0.8-0.5-1.5-1.3-1.3c-0.4,0.1-0.8,0.4-0.9,0.9c-0.1,0.8,0.5,1.5,1.3,1.3
	C10,76.1,10.4,75.7,10.5,75.3z"/>
<path class="st0" d="M10.5,61.9c0.1-0.8-0.5-1.5-1.3-1.3c-0.4,0.1-0.8,0.4-0.9,0.9c-0.1,0.8,0.5,1.5,1.3,1.3
	C10,62.7,10.4,62.4,10.5,61.9z"/>
<path class="st0" d="M10.5,46.6c0.1-0.8-0.5-1.5-1.3-1.3c-0.4,0.1-0.8,0.4-0.9,0.9c-0.1,0.8,0.5,1.5,1.3,1.3
	C10,47.4,10.4,47.1,10.5,46.6z"/>
<path class="st0" d="M10.5,30.9c0.1-0.8-0.5-1.5-1.3-1.3c-0.4,0.1-0.8,0.4-0.9,0.9c-0.1,0.8,0.5,1.5,1.3,1.3
	C10,31.7,10.4,31.3,10.5,30.9z"/>
<path class="st0" d="M10.5,15.2c0.1-0.8-0.5-1.5-1.3-1.3c-0.4,0.1-0.8,0.4-0.9,0.9c-0.1,0.8,0.5,1.5,1.3,1.3
	C10,16,10.4,15.6,10.5,15.2z"/>
<path class="st0" d="M10.5,1.8C10.6,1,10,0.3,9.2,0.5C8.8,0.6,8.4,0.9,8.3,1.4C8.2,2.2,8.8,2.9,9.6,2.7C10,2.6,10.4,2.3,10.5,1.8z"
	/>
<path class="st0" d="M10.5-13.5c0.1-0.8-0.5-1.5-1.3-1.3c-0.4,0.1-0.8,0.4-0.9,0.9c-0.1,0.8,0.5,1.5,1.3,1.3
	C10-12.7,10.4-13,10.5-13.5z"/>
<path class="st0" d="M10.5-29.2c0.1-0.8-0.5-1.5-1.3-1.3c-0.4,0.1-0.8,0.4-0.9,0.9c-0.1,0.8,0.5,1.5,1.3,1.3
	C10-28.4,10.4-28.8,10.5-29.2z"/>
<polygon class="st0" points="15.6,302.7 14.6,301.6 7.8,308.4 1,301.6 0,302.6 7.8,310.5 "/>
</svg>
