<?xml version="1.0" encoding="utf-8"?>
<!-- Generator: Adobe Illustrator 27.2.0, SVG Export Plug-In . SVG Version: 6.00 Build 0)  -->
<svg version="1.1" id="Layer_1" xmlns="http://www.w3.org/2000/svg" xmlns:xlink="http://www.w3.org/1999/xlink" x="0px" y="0px"
	 viewBox="0 0 341 15.6" style="enable-background:new 0 0 341 15.6;" xml:space="preserve">
<style type="text/css">
	.st0{fill:#5A03D6;}
</style>
<path class="st0" d="M324.7,5.6c-0.8-0.1-1.5,0.5-1.3,1.3c0.1,0.4,0.4,0.8,0.9,0.9c0.8,0.2,1.5-0.5,1.3-1.3
	C325.5,6,325.1,5.7,324.7,5.6z"/>
<path class="st0" d="M309,5.6c-0.8-0.1-1.5,0.5-1.3,1.3c0.1,0.4,0.4,0.8,0.9,0.9c0.8,0.2,1.5-0.5,1.3-1.3C309.8,6,309.4,5.7,309,5.6
	z"/>
<path class="st0" d="M293.1,5.6c-0.8-0.1-1.5,0.5-1.3,1.3c0.1,0.4,0.4,0.8,0.9,0.9c0.8,0.2,1.5-0.5,1.3-1.3
	C293.9,6,293.5,5.7,293.1,5.6z"/>
<path class="st0" d="M277.7,5.1c-0.8-0.1-1.5,0.5-1.3,1.3c0.1,0.4,0.4,0.8,0.9,0.9c0.8,0.1,1.5-0.5,1.3-1.3
	C278.5,5.6,278.1,5.2,277.7,5.1z"/>
<path class="st0" d="M261.7,5.1c-0.8-0.1-1.5,0.5-1.3,1.3c0.1,0.4,0.4,0.8,0.9,0.9c0.8,0.1,1.5-0.5,1.3-1.3
	C262.5,5.6,262.2,5.2,261.7,5.1z"/>
<path class="st0" d="M246.1,5.1c-0.8-0.1-1.5,0.5-1.3,1.3c0.1,0.4,0.4,0.8,0.9,0.9c0.8,0.1,1.5-0.5,1.3-1.3
	C246.9,5.6,246.5,5.2,246.1,5.1z"/>
<path class="st0" d="M230.6,5.1c-0.8-0.1-1.5,0.5-1.3,1.3c0.1,0.4,0.4,0.8,0.9,0.9c0.8,0.1,1.5-0.5,1.3-1.3
	C231.4,5.6,231,5.2,230.6,5.1z"/>
<path class="st0" d="M214.7,5.1c-0.8-0.1-1.5,0.5-1.3,1.3c0.1,0.4,0.4,0.8,0.9,0.9c0.8,0.1,1.5-0.5,1.3-1.3
	C215.5,5.6,215.1,5.2,214.7,5.1z"/>
<path class="st0" d="M199.2,5.1c-0.8-0.1-1.5,0.5-1.3,1.3c0.1,0.4,0.4,0.8,0.9,0.9c0.8,0.1,1.5-0.5,1.3-1.3
	C200,5.6,199.6,5.2,199.2,5.1z"/>
<path class="st0" d="M183,5.1c-0.8-0.1-1.5,0.5-1.3,1.3c0.1,0.4,0.4,0.8,0.9,0.9c0.8,0.1,1.5-0.5,1.3-1.3
	C183.8,5.6,183.5,5.2,183,5.1z"/>
<path class="st0" d="M167.7,5.1c-0.8-0.1-1.5,0.5-1.3,1.3c0.1,0.4,0.4,0.8,0.9,0.9c0.8,0.1,1.5-0.5,1.3-1.3
	C168.5,5.6,168.2,5.2,167.7,5.1z"/>
<path class="st0" d="M152,5.1c-0.8-0.1-1.5,0.5-1.3,1.3c0.1,0.4,0.4,0.8,0.9,0.9c0.8,0.1,1.5-0.5,1.3-1.3
	C152.8,5.6,152.4,5.2,152,5.1z"/>
<path class="st0" d="M136.8,5.1c-0.8-0.1-1.5,0.5-1.3,1.3c0.1,0.4,0.4,0.8,0.9,0.9c0.8,0.1,1.5-0.5,1.3-1.3
	C137.6,5.6,137.3,5.2,136.8,5.1z"/>
<path class="st0" d="M121.5,5.1c-0.8-0.1-1.5,0.5-1.3,1.3c0.1,0.4,0.4,0.8,0.9,0.9c0.8,0.1,1.5-0.5,1.3-1.3
	C122.3,5.6,122,5.2,121.5,5.1z"/>
<path class="st0" d="M105.8,5.1c-0.8-0.1-1.5,0.5-1.3,1.3c0.1,0.4,0.4,0.8,0.9,0.9c0.8,0.1,1.5-0.5,1.3-1.3
	C106.6,5.6,106.2,5.2,105.8,5.1z"/>
<path class="st0" d="M92.4,5.1c-0.8-0.1-1.5,0.5-1.3,1.3c0.1,0.4,0.4,0.8,0.9,0.9c0.8,0.1,1.5-0.5,1.3-1.3
	C93.2,5.6,92.9,5.2,92.4,5.1z"/>
<path class="st0" d="M77.1,5.1c-0.8-0.1-1.5,0.5-1.3,1.3c0.1,0.4,0.4,0.8,0.9,0.9C77.5,7.4,78.2,6.8,78,6
	C77.9,5.6,77.6,5.2,77.1,5.1z"/>
<path class="st0" d="M61.4,5.1c-0.8-0.1-1.5,0.5-1.3,1.3c0.1,0.4,0.4,0.8,0.9,0.9c0.8,0.1,1.5-0.5,1.3-1.3
	C62.2,5.6,61.8,5.2,61.4,5.1z"/>
<path class="st0" d="M45.7,5.1c-0.8-0.1-1.5,0.5-1.3,1.3c0.1,0.4,0.4,0.8,0.9,0.9c0.8,0.1,1.5-0.5,1.3-1.3
	C46.5,5.6,46.1,5.2,45.7,5.1z"/>
<path class="st0" d="M32.3,5.1C31.5,5,30.8,5.6,31,6.4c0.1,0.4,0.4,0.8,0.9,0.9c0.8,0.1,1.5-0.5,1.3-1.3C33.1,5.6,32.8,5.2,32.3,5.1
	z"/>
<path class="st0" d="M17,5.1c-0.8-0.1-1.5,0.5-1.3,1.3c0.1,0.4,0.4,0.8,0.9,0.9c0.8,0.1,1.5-0.5,1.3-1.3C17.8,5.6,17.5,5.2,17,5.1z"
	/>
<path class="st0" d="M1.3,5.1C0.5,5-0.2,5.6,0,6.4c0.1,0.4,0.4,0.8,0.9,0.9C1.7,7.4,2.4,6.8,2.2,6C2.1,5.6,1.7,5.2,1.3,5.1z"/>
<polygon class="st0" points="333.2,0 332.1,1 338.9,7.8 332.1,14.6 333.1,15.6 341,7.8 "/>
</svg>
