<?xml version="1.0" encoding="UTF-8"?>
<svg id="Layer_1" data-name="Layer 1" xmlns="http://www.w3.org/2000/svg" viewBox="0 0 125 5.99">
  <path d="m118.74,2.15c-.31-.04-.58.19-.5.5.04.15.15.31.35.35.31.08.58-.19.5-.5-.04-.19-.19-.31-.35-.35Z" style="fill: #fff;"/>
  <path d="m112.7,2.15c-.31-.04-.58.19-.5.5.04.15.15.31.35.35.31.08.58-.19.5-.5-.04-.19-.19-.31-.35-.35Z" style="fill: #fff;"/>
  <path d="m106.6,2.15c-.31-.04-.58.19-.5.5.04.15.15.31.35.35.31.08.58-.19.5-.5-.04-.19-.19-.31-.35-.35Z" style="fill: #fff;"/>
  <path d="m100.68,1.96c-.31-.04-.58.19-.5.5.04.15.15.31.35.35.31.04.58-.19.5-.5-.04-.15-.19-.31-.35-.35Z" style="fill: #fff;"/>
  <path d="m94.53,1.96c-.31-.04-.58.19-.5.5.04.15.15.31.35.35.31.04.58-.19.5-.5-.04-.15-.15-.31-.35-.35Z" style="fill: #fff;"/>
  <path d="m88.54,1.96c-.31-.04-.58.19-.5.5.04.15.15.31.35.35.31.04.58-.19.5-.5-.04-.15-.19-.31-.35-.35Z" style="fill: #fff;"/>
  <path d="m82.58,1.96c-.31-.04-.58.19-.5.5.04.15.15.31.35.35.31.04.58-.19.5-.5-.04-.15-.19-.31-.35-.35Z" style="fill: #fff;"/>
  <path d="m76.47,1.96c-.31-.04-.58.19-.5.5.04.15.15.31.35.35.31.04.58-.19.5-.5-.04-.15-.19-.31-.35-.35Z" style="fill: #fff;"/>
  <path d="m70.52,1.96c-.31-.04-.58.19-.5.5.04.15.15.31.35.35.31.04.58-.19.5-.5-.04-.15-.19-.31-.35-.35Z" style="fill: #fff;"/>
  <path d="m64.29,1.96c-.31-.04-.58.19-.5.5.04.15.15.31.35.35.31.04.58-.19.5-.5-.04-.15-.15-.31-.35-.35Z" style="fill: #fff;"/>
  <path d="m58.41,1.96c-.31-.04-.58.19-.5.5.04.15.15.31.35.35.31.04.58-.19.5-.5-.04-.15-.15-.31-.35-.35Z" style="fill: #fff;"/>
  <path d="m52.38,1.96c-.31-.04-.58.19-.5.5.04.15.15.31.35.35.31.04.58-.19.5-.5-.04-.15-.19-.31-.35-.35Z" style="fill: #fff;"/>
  <path d="m46.54,1.96c-.31-.04-.58.19-.5.5.04.15.15.31.35.35.31.04.58-.19.5-.5-.04-.15-.15-.31-.35-.35Z" style="fill: #fff;"/>
  <path d="m40.66,1.96c-.31-.04-.58.19-.5.5.04.15.15.31.35.35.31.04.58-.19.5-.5-.04-.15-.15-.31-.35-.35Z" style="fill: #fff;"/>
  <path d="m34.63,1.96c-.31-.04-.58.19-.5.5.04.15.15.31.35.35.31.04.58-.19.5-.5-.04-.15-.19-.31-.35-.35Z" style="fill: #fff;"/>
  <path d="m29.48,1.96c-.31-.04-.58.19-.5.5.04.15.15.31.35.35.31.04.58-.19.5-.5-.04-.15-.15-.31-.35-.35Z" style="fill: #fff;"/>
  <path d="m23.6,1.96c-.31-.04-.58.19-.5.5.04.15.15.31.35.35.31.04.58-.19.5-.5-.04-.15-.15-.31-.35-.35Z" style="fill: #fff;"/>
  <path d="m17.57,1.96c-.31-.04-.58.19-.5.5.04.15.15.31.35.35.31.04.58-.19.5-.5-.04-.15-.19-.31-.35-.35Z" style="fill: #fff;"/>
  <path d="m11.54,1.96c-.31-.04-.58.19-.5.5.04.15.15.31.35.35.31.04.58-.19.5-.5-.04-.15-.19-.31-.35-.35Z" style="fill: #fff;"/>
  <path d="m6.39,1.96c-.31-.04-.58.19-.5.5.04.15.15.31.35.35.31.04.58-.19.5-.5-.04-.15-.15-.31-.35-.35Z" style="fill: #fff;"/>
  <path d="m.51,1.96c-.31-.04-.58.19-.5.5.04.15.15.31.35.35.31.04.58-.19.5-.5-.04-.15-.15-.31-.35-.35Z" style="fill: #fff;"/>
  <polygon points="122 0 121.58 .38 124.19 3 121.58 5.61 121.96 5.99 125 3 122 0" style="fill: #fff;"/>
</svg>