<?xml version="1.0" encoding="UTF-8"?><svg id="Camada_1" xmlns="http://www.w3.org/2000/svg" viewBox="0 0 230.47 230.47"><path id="blue-icon" d="m7.7,178.04c-13.89-3.06-8.45-33.13,11.96-32.95.05,0,.1,0,.14,0,.26,0,.52.01.78.03.09,0,.19.01.29.02.23.02.46.03.69.05.13.01.27.03.41.05.2.02.41.05.61.08.18.02.35.06.53.08.18.03.35.06.53.09.23.04.46.09.69.14.13.03.27.05.4.09.37.09.75.18,1.13.29.01,0,.02,0,.03,0,.97.27,1.95.55,2.92.83.06.02.13.04.19.06.95.28,1.9.56,2.85.85.04.01.07.02.11.03,27.42,8.39,54.31,20.66,67.08.36l22.88-36.38,11.02-17.73c1.79-2.85,5.55-3.71,8.4-1.91,2.85,1.79,3.71,5.55,1.91,8.4l-9.37,15.1-30.63,48.7c-22.6,35.93-37.61,26.49-95.58,13.73Zm59.41-41.76l1.25-7.02c.69-3.88-9.44-8.91-22.61-11.26-13.18-2.34-24.42-1.1-25.11,2.78l-1.25,7.02c-.69,3.88,9.44,8.92,22.61,11.26,13.18,2.34,24.42,1.1,25.11-2.78Z" style="fill:#179cc8;"/><path id="purple-icon" d="m97.52,136.45c-1.79,2.85-5.55,3.71-8.4,1.91-2.85-1.79-3.71-5.55-1.91-8.4l9.37-15.1,30.63-48.7c22.6-35.93,37.61-26.49,95.58-13.73,13.89,3.06,8.45,33.13-11.96,32.95-.05,0-.1,0-.14,0-.26,0-.52-.01-.78-.03-.09,0-.19-.01-.29-.02-.23-.02-.46-.03-.69-.05-.14-.01-.27-.03-.41-.05-.2-.02-.41-.05-.61-.08-.18-.02-.35-.06-.53-.08-.18-.03-.35-.06-.53-.09-.23-.04-.46-.09-.69-.14-.13-.03-.27-.05-.4-.09-.37-.09-.75-.18-1.13-.29-.01,0-.02,0-.03,0-.97-.27-1.95-.55-2.92-.83-.06-.02-.13-.04-.19-.06-.95-.28-1.9-.56-2.85-.85-.04-.01-.07-.02-.11-.03-27.42-8.39-54.31-20.66-67.08-.36l-22.88,36.38-11.02,17.73Zm112.32-26.77l1.25-7.02c.69-3.88-9.44-8.92-22.61-11.26-13.18-2.34-24.42-1.1-25.11,2.78l-1.25,7.02c-.69,3.88,9.44,8.91,22.61,11.26,13.18,2.34,24.42,1.1,25.11-2.78Z" style="fill:#542a7d;"/><path id="orange-icon" d="m129.96,143.27l-15.1-9.37-48.7-30.63c-35.93-22.6-26.49-37.61-13.73-95.58,3.06-13.89,33.13-8.45,32.95,11.96,0,.05,0,.1,0,.14,0,.26-.01.52-.03.78,0,.09-.01.19-.02.29-.02.23-.03.46-.05.69-.01.13-.03.27-.05.41-.02.2-.05.41-.08.61-.02.18-.06.35-.08.53-.03.18-.06.35-.09.53-.04.23-.09.46-.14.69-.03.13-.05.27-.09.4-.09.37-.18.75-.29,1.13,0,.01,0,.02,0,.03-.27.97-.55,1.95-.83,2.92-.02.06-.04.13-.06.19-.28.95-.56,1.9-.85,2.85-.01.04-.02.07-.03.11-8.39,27.42-20.66,54.31-.36,67.08l36.38,22.88,17.73,11.02c2.85,1.79,3.71,5.55,1.91,8.4-1.79,2.85-5.55,3.71-8.4,1.91Zm-35.77-76.16l7.02,1.25c3.88.69,8.92-9.44,11.26-22.61,2.34-13.18,1.1-24.42-2.78-25.11l-7.02-1.25c-3.88-.69-8.92,9.44-11.26,22.61-2.34,13.18-1.1,24.42,2.78,25.11Z" style="fill:#e1663b;"/><path id="red-icon" d="m145.09,210.81s0-.1,0-.14c0-.26.01-.52.03-.78,0-.09.01-.19.02-.29.02-.23.03-.46.05-.69.01-.14.03-.27.05-.41.02-.2.05-.41.08-.61.02-.18.06-.35.08-.53.03-.18.06-.35.09-.53.04-.23.09-.46.14-.69.03-.13.05-.27.09-.4.09-.37.18-.75.29-1.13,0-.01,0-.02.01-.03.27-.97.55-1.95.83-2.92.02-.06.04-.13.06-.19.28-.95.56-1.9.85-2.85.01-.04.02-.07.03-.11,8.39-27.42,20.66-54.31.36-67.08l-36.38-22.88-17.73-11.02c-2.85-1.79-3.71-5.55-1.91-8.4,1.79-2.85,5.55-3.71,8.4-1.91l15.1,9.37,48.7,30.63c35.93,22.6,26.49,37.61,13.73,95.58-3.06,13.89-33.13,8.45-32.95-11.96Zm-8.8-47.45l-7.02-1.25c-3.88-.69-8.91,9.44-11.26,22.61-2.34,13.18-1.1,24.42,2.78,25.11l7.02,1.25c3.88.69,8.92-9.44,11.26-22.61,2.34-13.18,1.1-24.42-2.78-25.11Z" style="fill:#db3a38;"/></svg>