<?xml version="1.0" encoding="UTF-8"?><svg id="Camada_1" xmlns="http://www.w3.org/2000/svg" viewBox="0 0 400 286.15"><path id="blue-icon" d="m136.9,104.47c-8.15-1.79-4.96-19.44,7.02-19.34.03,0,.06,0,.08,0,.15,0,.3,0,.46.02.06,0,.11,0,.17.01.13,0,.27.02.41.03.08,0,.16.02.24.03.12.01.24.03.36.04.1.01.21.03.31.05.1.02.21.03.31.05.13.03.27.05.41.08.08.02.16.03.24.05.22.05.44.11.66.17,0,0,.01,0,.02,0,.57.16,1.14.32,1.71.49.04.01.07.02.11.03.56.16,1.11.33,1.67.5.02,0,.04.01.06.02,16.09,4.92,31.87,12.12,39.36.21l13.43-21.35,6.47-10.41c1.05-1.67,3.26-2.17,4.93-1.12,1.67,1.05,2.17,3.26,1.12,4.93l-5.5,8.86-17.97,28.58c-13.26,21.08-22.07,15.54-56.08,8.06Zm34.86-24.5l.73-4.12c.4-2.27-5.54-5.23-13.27-6.6-7.73-1.37-14.33-.64-14.73,1.63l-.73,4.12c-.4,2.27,5.54,5.23,13.27,6.6,7.73,1.37,14.33.64,14.73-1.63Z" style="fill:#179cc8;"/><path id="purple-icon" d="m189.6,80.06c-1.05,1.67-3.26,2.17-4.93,1.12-1.67-1.05-2.17-3.26-1.12-4.93l5.5-8.86,17.97-28.58c13.26-21.08,22.07-15.54,56.08-8.06,8.15,1.79,4.96,19.44-7.02,19.34-.03,0-.06,0-.08,0-.15,0-.3,0-.46-.02-.06,0-.11,0-.17-.01-.13,0-.27-.02-.41-.03-.08,0-.16-.02-.24-.03-.12-.01-.24-.03-.36-.04-.1-.01-.21-.03-.31-.05-.1-.02-.21-.03-.31-.05-.13-.03-.27-.05-.41-.08-.08-.02-.16-.03-.24-.05-.22-.05-.44-.11-.66-.17,0,0-.01,0-.02,0-.57-.16-1.14-.32-1.71-.49-.04-.01-.07-.02-.11-.03-.56-.16-1.11-.33-1.67-.5-.02,0-.04-.01-.06-.02-16.09-4.92-31.87-12.12-39.36-.21l-13.43,21.35-6.47,10.41Zm65.9-15.71l.73-4.12c.4-2.27-5.54-5.23-13.27-6.6-7.73-1.37-14.33-.64-14.73,1.63l-.73,4.12c-.4,2.27,5.54,5.23,13.27,6.6,7.73,1.37,14.33.64,14.73-1.63Z" style="fill:#542a7d;"/><path id="orange-icon" d="m208.64,84.07l-8.86-5.5-28.58-17.97c-21.08-13.26-15.54-22.07-8.06-56.08,1.79-8.15,19.44-4.96,19.34,7.02,0,.03,0,.06,0,.08,0,.15,0,.3-.02.46,0,.06,0,.11-.01.17,0,.13-.02.27-.03.41,0,.08-.02.16-.03.24-.01.12-.03.24-.04.36-.01.1-.03.21-.05.31-.02.1-.03.21-.05.31-.03.13-.05.27-.08.41-.02.08-.03.16-.05.24-.05.22-.11.44-.17.66,0,0,0,.01,0,.02-.16.57-.32,1.14-.49,1.71-.01.04-.02.07-.03.11-.16.56-.33,1.11-.5,1.67,0,.02-.01.04-.02.06-4.92,16.09-12.12,31.87-.21,39.36l21.35,13.43,10.41,6.47c1.67,1.05,2.17,3.26,1.12,4.93-1.05,1.67-3.26,2.17-4.93,1.12Zm-20.99-44.69l4.12.73c2.27.4,5.23-5.54,6.6-13.27,1.37-7.73.64-14.33-1.63-14.73l-4.12-.73c-2.27-.4-5.23,5.54-6.6,13.27-1.37,7.73-.64,14.33,1.63,14.73Z" style="fill:#e1663b;"/><path id="red-icon" d="m217.52,123.7s0-.06,0-.08c0-.15,0-.3.02-.46,0-.06,0-.11.01-.17,0-.13.02-.27.03-.41,0-.08.02-.16.03-.24.01-.12.03-.24.04-.36.01-.1.03-.21.05-.31.02-.1.03-.21.05-.31.03-.13.05-.27.08-.41.02-.08.03-.16.05-.24.05-.22.11-.44.17-.66,0,0,0-.01,0-.02.16-.57.32-1.14.49-1.71.01-.04.02-.07.03-.11.16-.56.33-1.11.5-1.67,0-.02.01-.04.02-.06,4.92-16.09,12.12-31.87.21-39.36l-21.35-13.43-10.41-6.47c-1.67-1.05-2.17-3.26-1.12-4.93,1.05-1.67,3.26-2.17,4.93-1.12l8.86,5.5,28.58,17.97c21.08,13.26,15.54,22.07,8.06,56.08-1.79,8.15-19.44,4.96-19.34-7.02Zm-5.17-27.84l-4.12-.73c-2.27-.4-5.23,5.54-6.6,13.27-1.37,7.73-.64,14.33,1.63,14.73l4.12.73c2.27.4,5.23-5.54,6.6-13.27,1.37-7.73.64-14.33-1.63-14.73Z" style="fill:#db3a38;"/><path id="hockey" d="m59.61,212.14v70.14c0,1.36-1.1,2.46-2.46,2.46h-11.62c-1.36,0-2.46-1.1-2.46-2.46v-28.59c0-1.36-1.1-2.46-2.46-2.46h-21.63c-1.36,0-2.46,1.1-2.46,2.46v28.59c0,1.36-1.1,2.46-2.46,2.46H2.46c-1.36,0-2.46-1.1-2.46-2.46v-70.14c0-1.36,1.1-2.46,2.46-2.46h11.62c1.36,0,2.46,1.1,2.46,2.46v23.8c0,1.36,1.1,2.46,2.46,2.46h21.63c1.36,0,2.46-1.1,2.46-2.46v-23.8c0-1.36,1.1-2.46,2.46-2.46h11.62c1.36,0,2.46,1.1,2.46,2.46Zm63.9-.39c4.6,2.32,7.94,6.29,10.01,11.91,2.07,5.62,3.1,13.47,3.1,23.55s-1.03,17.93-3.1,23.55c-2.07,5.62-5.4,9.59-10.01,11.91-4.61,2.32-10.97,3.48-19.09,3.48s-14.47-1.16-19.04-3.48c-4.57-2.32-7.89-6.27-9.95-11.86-2.07-5.58-3.1-13.45-3.1-23.6s1.03-18.02,3.1-23.6c2.07-5.58,5.38-9.53,9.95-11.86,4.57-2.32,10.91-3.48,19.04-3.48s14.48,1.16,19.09,3.48Zm-28.01,12.18c-2.1,1.52-3.59,4.1-4.46,7.72-.87,3.63-1.31,8.81-1.31,15.55s.43,11.93,1.31,15.56c.87,3.63,2.36,6.2,4.46,7.72,2.1,1.52,5.07,2.29,8.92,2.29s6.82-.76,8.92-2.29c2.1-1.52,3.59-4.1,4.46-7.72.87-3.62,1.31-8.81,1.31-15.56s-.44-11.93-1.31-15.55c-.87-3.62-2.36-6.2-4.46-7.72-2.1-1.52-5.08-2.29-8.92-2.29s-6.82.76-8.92,2.29Zm95.12-15.01c2.54.29,5.23.77,8.07,1.44,1.2.28,1.99,1.44,1.85,2.66l-.91,7.95c-.15,1.28-1.26,2.24-2.55,2.18-5.39-.28-11.66-.41-18.81-.41-3.7,0-6.56.73-8.59,2.18-2.03,1.45-3.46,3.92-4.3,7.4-.84,3.48-1.25,8.45-1.25,14.9s.42,11.42,1.25,14.9c.83,3.48,2.27,5.95,4.3,7.4,2.03,1.45,4.89,2.18,8.59,2.18,5.51,0,9.88-.05,13.11-.16,2.39-.08,4.74-.25,7.07-.51,1.35-.15,2.58.8,2.73,2.15l.89,7.76c.14,1.2-.61,2.34-1.77,2.65-2.89.79-5.79,1.37-8.71,1.76-3.59.47-8.03.71-13.33.71-7.83,0-14.03-1.25-18.6-3.75-4.57-2.5-7.87-6.56-9.9-12.18-2.03-5.62-3.05-13.25-3.05-22.9s1.02-17.28,3.05-22.9c2.03-5.62,5.33-9.68,9.9-12.18,4.57-2.5,10.77-3.75,18.6-3.75,5.08,0,9.19.18,12.35.54Zm44.54,42.75h-6.42c.51,2.9.76,5.29.76,7.18v23.43c0,1.36-1.1,2.46-2.46,2.46h-11.62c-1.36,0-2.46-1.1-2.46-2.46v-70.14c0-1.36,1.1-2.46,2.46-2.46h11.62c1.36,0,2.46,1.1,2.46,2.46v18.75c0,3.19-.25,6.16-.76,8.92h6.31l18.42-28.99c.45-.71,1.23-1.14,2.07-1.14h12.08c1.95,0,3.12,2.16,2.06,3.79l-16.91,26.12c-1.23,2.18-3.04,4.17-5.44,5.98v.44c1.16.8,2.32,1.79,3.48,2.99,1.16,1.2,2.1,2.41,2.83,3.64l17.49,28.34c1.01,1.64-.17,3.75-2.09,3.75h-12.7c-.86,0-1.66-.45-2.11-1.19l-19.08-31.87Zm95.32,22.43l.47,7.52c.08,1.32-.88,2.48-2.2,2.6-3.85.36-8,.59-12.45.68-5.37.11-12.04.16-20.01.16-5,0-8.99-1.36-11.96-4.08-2.98-2.72-4.5-6.4-4.57-11.04v-45.47c.07-4.64,1.59-8.32,4.57-11.04,2.97-2.72,6.96-4.08,11.96-4.08,7.98,0,14.65.05,20.01.16,4.45.09,8.6.32,12.45.68,1.31.12,2.28,1.28,2.2,2.6l-.47,7.63c-.08,1.3-1.15,2.3-2.45,2.3h-26.52c-1.81,0-3.12.43-3.92,1.31-.8.87-1.2,2.28-1.2,4.24v11.42h27.46c1.36,0,2.46,1.1,2.46,2.46v7.05c0,1.36-1.1,2.46-2.46,2.46h-27.46v14.47c0,2.03.4,3.48,1.2,4.35.8.87,2.1,1.31,3.92,1.31h26.52c1.3,0,2.37,1.01,2.45,2.3Zm46.41-14.27v22.45c0,1.36-1.1,2.46-2.46,2.46h-11.73c-1.36,0-2.46-1.1-2.46-2.46v-22.45l-23.05-46.6c-.81-1.63.38-3.55,2.2-3.55h11.76c.96,0,1.84.56,2.24,1.44l11.85,26.08c.72,1.67,1.36,3.55,1.9,5.66.54,2.1.85,3.37.92,3.81h1.09c.87-3.92,1.78-7.07,2.72-9.46l11.85-26.08c.4-.88,1.27-1.44,2.24-1.44h11.56c1.82,0,3.01,1.91,2.21,3.54l-22.85,46.61Z" style="fill:#4d4d4f;"/><path id="WeAreAll" d="m48.66,195.26c-.17.56-.47,1.01-.9,1.35-.43.34-.96.51-1.61.51h-7.14c-.6,0-1.14-.18-1.61-.55-.47-.36-.77-.82-.9-1.38l-6.43-32.6c-.43-2.23-.73-3.9-.9-5.01h-1.35l-.32,1.67c-.21,1.41-.43,2.53-.64,3.34l-6.36,32.6c-.09.56-.36,1.02-.84,1.38-.47.36-1.03.55-1.67.55h-7.2c-.6,0-1.13-.17-1.58-.51s-.74-.79-.87-1.35L.14,154.15c-.14-.72.41-1.39,1.14-1.39h4.44c.56,0,1.04.4,1.14.95l6.19,32.87c.26,1.37.45,2.81.58,4.31l.19,1.35h1.48c.21-1.84.54-3.73.96-5.66l6.36-31.69c.13-.64.41-1.16.84-1.54.43-.39.96-.58,1.61-.58h6.88c.6,0,1.13.2,1.57.61.45.41.74.91.87,1.51l6.3,31.76c.34,1.71.66,3.58.96,5.59h1.48l.39-2.7c.17-1.29.32-2.23.45-2.83l6.19-33c.1-.55.58-.95,1.14-.95h4.44c.73,0,1.28.67,1.14,1.39l-8.21,41.11Zm49.57-2.39l.18,2.72c.04.63-.43,1.19-1.06,1.24-2.24.16-4.59.27-7.06.33-2.89.06-6.5.1-10.83.1-2.74,0-4.91-.72-6.49-2.15-1.59-1.44-2.4-3.38-2.44-5.82v-28.67c.04-2.44.86-4.38,2.44-5.82,1.59-1.44,3.75-2.15,6.49-2.15,4.33,0,7.94.03,10.83.1,2.47.05,4.82.16,7.06.33.63.05,1.1.6,1.06,1.23l-.18,2.78c-.04.61-.55,1.09-1.16,1.09h-16.53c-1.29,0-2.2.31-2.73.93-.54.62-.8,1.68-.8,3.18v7.71c0,.64.52,1.16,1.16,1.16h16.39c.64,0,1.16.52,1.16,1.16v2.89c0,.64-.52,1.16-1.16,1.16h-16.39c-.64,0-1.16.52-1.16,1.16v10.15c0,1.5.27,2.56.8,3.18.54.62,1.45.93,2.73.93h16.53c.61,0,1.12.47,1.16,1.08Zm57.13-9.12h-15.97c-.51,0-.96.33-1.11.82l-3.61,11.73c-.15.49-.6.82-1.11.82h-4.1c-.79,0-1.35-.77-1.1-1.52l13.39-41.11c.17-.56.46-.99.87-1.29.41-.3.91-.45,1.51-.45h6.56c.56,0,1.05.16,1.48.48.43.32.71.74.84,1.25l13.45,41.1c.25.75-.31,1.52-1.1,1.52h-4.16c-.51,0-.96-.33-1.11-.82l-3.61-11.73c-.15-.49-.6-.82-1.11-.82Zm-2.45-5.59c.78,0,1.34-.75,1.11-1.5l-4.69-15.35-.84-2.78c-.15-.49-.6-.82-1.11-.82h0c-.52,0-.97.34-1.12.84l-.79,2.76-4.74,15.34c-.23.75.33,1.5,1.11,1.5h11.07Zm56.65,18.97h-4.44c-.52,0-.98-.35-1.12-.85l-3.56-12.97c-.51-1.59-1.21-2.72-2.09-3.41-.88-.69-2.05-1.03-3.5-1.03-3.57,0-6.22-.01-7.96-.04-.65-.01-1.17.51-1.17,1.16v15.98c0,.64-.52,1.16-1.16,1.16h-4.04c-.64,0-1.16-.52-1.16-1.16v-42.15c0-.6.46-1.1,1.05-1.16,1.93-.19,3.78-.32,5.54-.37,2.08-.06,5.05-.1,8.9-.1,3.6,0,6.45.39,8.55,1.16,2.1.77,3.64,2.09,4.63,3.95.99,1.86,1.48,4.45,1.48,7.75,0,3.56-.63,6.24-1.9,8.04-1.26,1.8-3.35,2.89-6.27,3.28v.32c1.24.34,2.38,1.05,3.41,2.12,1.03,1.07,1.76,2.51,2.19,4.31l3.73,12.52c.22.74-.34,1.49-1.11,1.49Zm-9.86-24.56c1.18-.47,2.02-1.26,2.54-2.38.51-1.11.77-2.7.77-4.76s-.26-3.63-.77-4.73c-.51-1.09-1.36-1.86-2.54-2.31-1.18-.45-2.84-.67-4.98-.67-3.5,0-6.12.01-7.86.04-.63,0-1.14.53-1.14,1.16v13.26c0,.64.52,1.16,1.16,1.16h7.84c2.14-.04,3.8-.3,4.98-.77Zm53.27,20.31l.18,2.72c.04.63-.43,1.19-1.06,1.24-2.24.16-4.59.27-7.06.33-2.89.06-6.5.1-10.83.1-2.74,0-4.91-.72-6.49-2.15-1.59-1.44-2.4-3.38-2.44-5.82v-28.67c.04-2.44.86-4.38,2.44-5.82,1.58-1.44,3.75-2.15,6.49-2.15,4.33,0,7.94.03,10.83.1,2.47.05,4.82.16,7.06.33.63.05,1.1.6,1.06,1.23l-.18,2.78c-.04.61-.55,1.09-1.16,1.09h-16.53c-1.29,0-2.2.31-2.73.93-.54.62-.8,1.68-.8,3.18v7.71c0,.64.52,1.16,1.16,1.16h16.39c.64,0,1.16.52,1.16,1.16v2.89c0,.64-.52,1.16-1.16,1.16h-16.39c-.64,0-1.16.52-1.16,1.16v10.15c0,1.5.27,2.56.8,3.18.54.62,1.45.93,2.73.93h16.53c.61,0,1.12.47,1.16,1.09Zm57.13-9.12h-15.97c-.51,0-.96.33-1.11.82l-3.61,11.73c-.15.49-.6.82-1.11.82h-4.1c-.79,0-1.35-.77-1.1-1.52l13.39-41.11c.17-.56.46-.99.87-1.29.41-.3.91-.45,1.51-.45h6.56c.56,0,1.05.16,1.48.48.43.32.71.74.84,1.25l13.45,41.1c.25.75-.31,1.52-1.1,1.52h-4.16c-.51,0-.96-.33-1.11-.82l-3.61-11.73c-.15-.49-.6-.82-1.11-.82Zm-2.45-5.59c.78,0,1.34-.75,1.11-1.5l-4.69-15.35-.84-2.78c-.15-.49-.6-.82-1.11-.82h0c-.52,0-.97.34-1.12.84l-.79,2.76-4.74,15.34c-.23.75.33,1.5,1.11,1.5h11.07Zm32.75,9.45c0,1.5.3,2.56.9,3.18.6.62,1.65.93,3.15.93h14.66c.61,0,1.12.47,1.16,1.09l.18,2.73c.04.63-.42,1.18-1.05,1.23-4.04.32-9.37.48-15.97.48s-9.45-2.91-9.45-8.74v-34.59c0-.64.52-1.16,1.16-1.16h4.11c.64,0,1.16.52,1.16,1.16v33.69Zm39.54,0c0,1.5.3,2.56.9,3.18.6.62,1.65.93,3.15.93h14.66c.61,0,1.12.47,1.16,1.09l.18,2.73c.04.63-.42,1.18-1.05,1.23-4.04.32-9.37.48-15.97.48s-9.45-2.91-9.45-8.74v-34.59c0-.64.52-1.16,1.16-1.16h4.11c.64,0,1.16.52,1.16,1.16v33.69Z" style="fill:#67686a;"/></svg>