<?xml version="1.0" encoding="UTF-8"?><svg id="Camada_1" xmlns="http://www.w3.org/2000/svg" viewBox="0 0 491 129.17"><path id="blue-icon" d="m47.46,127.43c-6.3,4.03-15.46-9.18-7.81-16.7.02-.02.04-.04.05-.05.1-.09.2-.19.3-.28.04-.03.08-.07.11-.1.09-.08.18-.16.28-.24.05-.05.11-.09.17-.13.08-.07.17-.13.26-.2.07-.06.15-.11.23-.17.08-.05.15-.11.23-.16.1-.07.21-.14.31-.2.06-.04.12-.08.18-.12.17-.11.35-.21.53-.31,0,0,.01,0,.02,0,.46-.26.93-.52,1.4-.78.03-.02.06-.03.09-.05.46-.25.92-.5,1.38-.74.02,0,.03-.02.05-.03,13.31-7.08,27.88-12.51,25.07-24.81l-5.02-22.04-2.5-10.69c-.39-1.73.69-3.44,2.41-3.84,1.73-.39,3.44.69,3.84,2.41l2.13,9.1,6.72,29.5c4.96,21.76-4.13,23.83-30.43,40.64Zm6.56-37.62l-2.15-3.07c-1.19-1.7-6.82.19-12.59,4.22-5.77,4.03-9.49,8.67-8.3,10.37l2.15,3.07c1.19,1.7,6.82-.19,12.59-4.22,5.77-4.03,9.49-8.67,8.3-10.37Z" style="fill:#179cc8;"/><path id="purple-icon" d="m65.39,78.56c.39,1.73-.69,3.44-2.41,3.84-1.73.39-3.44-.69-3.84-2.41l-2.13-9.1-6.72-29.5c-4.96-21.76,4.13-23.83,30.43-40.64,6.3-4.03,15.46,9.18,7.81,16.7-.02.02-.04.04-.05.05-.1.09-.2.19-.3.28-.04.03-.08.07-.11.1-.09.08-.18.16-.28.24-.06.05-.11.09-.17.13-.08.07-.17.13-.26.2-.07.06-.15.11-.23.17-.08.05-.15.11-.23.16-.1.07-.21.14-.31.2-.06.04-.12.08-.18.12-.17.11-.35.21-.53.31,0,0-.01,0-.02,0-.46.26-.93.52-1.4.78-.03.02-.06.03-.09.05-.46.25-.92.5-1.38.74-.02,0-.03.02-.05.03-13.31,7.08-27.88,12.51-25.07,24.81l5.02,22.04,2.5,10.69Zm31.81-51.72l-2.15-3.07c-1.19-1.7-6.82.19-12.59,4.22-5.77,4.03-9.49,8.67-8.3,10.37l2.15,3.07c1.19,1.7,6.82-.19,12.59-4.22,5.77-4.03,9.49-8.67,8.3-10.37Z" style="fill:#542a7d;"/><path id="orange-icon" d="m79.99,69.04l-9.1,2.13-29.5,6.72c-21.76,4.96-23.83-4.13-40.64-30.43-4.03-6.3,9.18-15.46,16.7-7.81.02.02.04.04.05.05.09.1.19.2.28.3.03.04.07.08.1.11.08.09.16.18.24.28.05.06.09.11.13.17.07.08.13.17.2.26.06.07.11.15.17.23.05.08.11.15.16.23.07.1.14.21.2.31.04.06.08.12.12.18.11.17.21.35.31.53,0,0,0,.01,0,.02.26.46.52.93.78,1.4.02.03.03.06.05.09.25.46.5.92.74,1.38,0,.02.02.03.03.05,7.08,13.31,12.51,27.88,24.81,25.07l22.04-5.02,10.69-2.5c1.73-.39,3.44.69,3.84,2.41.39,1.73-.69,3.44-2.41,3.84Zm-41.62-15.02l3.07-2.15c1.7-1.19-.19-6.82-4.22-12.59-4.03-5.77-8.67-9.49-10.37-8.3l-3.07,2.15c-1.7,1.19.19,6.82,4.22,12.59,4.03,5.77,8.67,9.49,10.37,8.3Z" style="fill:#e1663b;"/><path id="red-icon" d="m110.73,88.52s-.04-.04-.05-.05c-.09-.1-.19-.2-.28-.3-.03-.04-.07-.08-.1-.11-.08-.09-.16-.18-.24-.28-.05-.06-.09-.11-.13-.17-.07-.08-.13-.17-.2-.26-.06-.07-.11-.15-.17-.23-.05-.08-.11-.15-.16-.23-.07-.1-.14-.21-.2-.31-.04-.06-.08-.12-.12-.18-.11-.17-.21-.35-.31-.53,0,0,0-.01,0-.02-.26-.46-.52-.93-.78-1.4-.02-.03-.03-.06-.05-.09-.25-.46-.5-.92-.74-1.38,0-.02-.02-.03-.03-.05-7.08-13.31-12.51-27.88-24.81-25.07l-22.04,5.02-10.69,2.5c-1.73.39-3.44-.69-3.84-2.41-.39-1.73.69-3.44,2.41-3.84l9.1-2.13,29.5-6.72c21.76-4.96,23.83,4.13,40.64,30.43,4.03,6.3-9.18,15.46-16.7,7.81Zm-20.92-14.37l-3.07,2.15c-1.7,1.19.19,6.82,4.22,12.59,4.03,5.77,8.67,9.49,10.37,8.3l3.07-2.15c1.7-1.19-.19-6.82-4.22-12.59-4.03-5.77-8.67-9.49-10.37-8.3Z" style="fill:#db3a38;"/><path id="weAll" d="m214.67,52.28c-.16.62-.48,1.11-.97,1.48-.49.36-1.07.54-1.75.54h-7.77c-.67,0-1.26-.19-1.75-.58-.49-.39-.79-.89-.89-1.51l-8.39-40.3c-.31-1.35-.73-3.36-1.24-6.06h-1.63l-1.17,6.06-8.31,40.3c-.16.62-.48,1.13-.97,1.51-.49.39-1.07.58-1.75.58h-7.84c-.67,0-1.26-.19-1.75-.58-.49-.39-.79-.87-.89-1.44l-9.98-47.32c-.46-2.19,1.21-4.24,3.44-4.24h0c1.68,0,3.12,1.18,3.45,2.83l7.82,38.95c.26,1.19.52,2.72.78,4.58l.31,2.02h1.79c.41-2.43.83-4.63,1.24-6.6l8.31-39.52c.1-.67.4-1.22.89-1.63.49-.41,1.07-.62,1.75-.62h7.45c.67,0,1.24.21,1.71.62.47.42.78.96.93,1.63l8.31,39.52c.52,2.54.88,4.74,1.09,6.6h1.94c.47-3.11.8-5.28,1.01-6.52l7.89-39.03c.33-1.64,1.78-2.82,3.45-2.82h0c2.24,0,3.91,2.06,3.45,4.25l-9.98,47.31Zm68.25-1.09h0c.09,1.51-1.07,2.81-2.58,2.87-4.77.21-11.52.32-20.24.32-3.16,0-5.66-.84-7.49-2.52-1.84-1.68-2.78-3.95-2.83-6.79V9.96c.05-2.85,1-5.11,2.83-6.8,1.84-1.68,4.33-2.52,7.49-2.52,8.71,0,15.44.11,20.21.32,1.53.07,2.71,1.38,2.62,2.91h0c-.08,1.46-1.29,2.6-2.75,2.6h-18.91c-1.6,0-2.78.42-3.53,1.24-.75.83-1.13,2.12-1.13,3.88v11.65h20.38c1.52,0,2.76,1.23,2.76,2.76h0c0,1.52-1.23,2.76-2.76,2.76h-20.38v14.68c0,1.81.38,3.13,1.13,3.96.75.83,1.93,1.24,3.53,1.24h18.95c1.44,0,2.63,1.12,2.71,2.56Zm85.74-13.66h-22.05l-4.55,14.44c-.44,1.39-1.72,2.33-3.18,2.33h0c-2.27,0-3.88-2.23-3.16-4.39l15.78-47.33c.16-.57.47-1.02.93-1.36.47-.34,1.01-.5,1.63-.5h7.14c.62,0,1.16.17,1.63.5.47.34.78.79.93,1.36l15.78,47.33c.72,2.16-.89,4.38-3.16,4.38h0c-1.45,0-2.74-.94-3.18-2.33l-4.55-14.44Zm-1.86-5.9l-6.76-21.28c-.47-1.35-.91-2.8-1.32-4.35h-2.17c-.42,1.55-.85,3-1.32,4.35l-6.76,21.28h18.33Zm43.87,11.8c0,1.76.41,3.06,1.24,3.88.83.83,2.15,1.24,3.96,1.24h16.76c1.45,0,2.64,1.13,2.73,2.57h0c.09,1.51-1.06,2.81-2.58,2.89-4.4.24-10.4.36-18,.36-3.78,0-6.54-.91-8.27-2.72-1.74-1.81-2.6-4.27-2.6-7.38V4.09c0-1.87,1.51-3.38,3.38-3.38h0c1.87,0,3.38,1.51,3.38,3.38v39.33Zm55.44,0c0,1.76.41,3.06,1.24,3.88.83.83,2.15,1.24,3.96,1.24h16.76c1.45,0,2.64,1.13,2.73,2.57h0c.09,1.51-1.06,2.81-2.58,2.89-4.4.24-10.4.36-18,.36-3.78,0-6.54-.91-8.27-2.72-1.74-1.81-2.6-4.27-2.6-7.38V4.09c0-1.87,1.51-3.38,3.38-3.38h0c1.87,0,3.38,1.51,3.38,3.38v39.33Z" style="fill:#67686a;"/><path id="hockey" d="m207.08,67.44v58.5c0,1.13-.92,2.05-2.05,2.05h-9.69c-1.13,0-2.05-.92-2.05-2.05v-23.85c0-1.13-.92-2.05-2.05-2.05h-18.04c-1.13,0-2.05.92-2.05,2.05v23.85c0,1.13-.92,2.05-2.05,2.05h-9.69c-1.13,0-2.05-.92-2.05-2.05v-58.5c0-1.13.92-2.05,2.05-2.05h9.69c1.13,0,2.05.92,2.05,2.05v19.85c0,1.13.92,2.05,2.05,2.05h18.04c1.13,0,2.05-.92,2.05-2.05v-19.85c0-1.13.92-2.05,2.05-2.05h9.69c1.13,0,2.05.92,2.05,2.05Zm53.3-.33c3.84,1.94,6.62,5.25,8.35,9.93,1.72,4.69,2.59,11.24,2.59,19.64s-.86,14.96-2.59,19.64c-1.72,4.69-4.51,8-8.35,9.93-3.84,1.93-9.15,2.9-15.92,2.9s-12.07-.97-15.88-2.9c-3.81-1.93-6.58-5.23-8.3-9.89-1.72-4.66-2.59-11.22-2.59-19.69s.86-15.03,2.59-19.69c1.72-4.66,4.49-7.95,8.3-9.89,3.81-1.94,9.1-2.9,15.88-2.9s12.08.97,15.92,2.9Zm-23.36,10.16c-1.75,1.27-2.99,3.42-3.72,6.44-.73,3.02-1.09,7.35-1.09,12.97s.36,9.95,1.09,12.97c.73,3.02,1.96,5.17,3.72,6.44,1.75,1.27,4.23,1.91,7.44,1.91s5.68-.64,7.44-1.91c1.75-1.27,2.99-3.42,3.72-6.44.73-3.02,1.09-7.35,1.09-12.97s-.36-9.95-1.09-12.97c-.73-3.02-1.97-5.17-3.72-6.44-1.75-1.27-4.23-1.91-7.44-1.91s-5.69.63-7.44,1.91Zm79.34-12.52c2.12.24,4.36.64,6.73,1.2,1,.24,1.66,1.2,1.54,2.22l-.76,6.63c-.12,1.07-1.05,1.87-2.13,1.81-4.49-.23-9.72-.35-15.69-.35-3.08,0-5.47.61-7.17,1.81-1.69,1.21-2.89,3.27-3.58,6.17-.7,2.9-1.04,7.05-1.04,12.43s.35,9.53,1.04,12.43c.69,2.9,1.89,4.96,3.58,6.17,1.69,1.21,4.08,1.81,7.17,1.81,4.6,0,8.24-.05,10.93-.14,1.99-.07,3.95-.21,5.89-.42,1.13-.13,2.15.66,2.28,1.79l.74,6.47c.11,1-.51,1.95-1.47,2.21-2.41.66-4.83,1.15-7.26,1.47-2.99.39-6.7.59-11.11.59-6.53,0-11.7-1.04-15.51-3.13-3.81-2.09-6.56-5.47-8.26-10.16-1.69-4.69-2.54-11.05-2.54-19.1s.85-14.41,2.54-19.1c1.69-4.69,4.45-8.07,8.26-10.16,3.81-2.09,8.98-3.13,15.51-3.13,4.23,0,7.67.15,10.3.45Zm37.15,35.66h-5.35c.42,2.42.63,4.42.63,5.99v19.54c0,1.13-.92,2.05-2.05,2.05h-9.69c-1.13,0-2.05-.92-2.05-2.05v-58.5c0-1.13.92-2.05,2.05-2.05h9.69c1.13,0,2.05.92,2.05,2.05v15.64c0,2.66-.21,5.14-.63,7.44h5.26l15.36-24.18c.38-.59,1.03-.95,1.73-.95h10.08c1.62,0,2.6,1.8,1.72,3.16l-14.1,21.79c-1.03,1.81-2.54,3.48-4.54,4.99v.36c.97.67,1.93,1.5,2.9,2.49.97,1,1.75,2.01,2.36,3.04l14.58,23.64c.84,1.37-.14,3.12-1.74,3.12h-10.59c-.72,0-1.39-.38-1.76-1l-15.92-26.58Zm79.51,18.71l.39,6.27c.07,1.1-.74,2.06-1.83,2.17-3.21.3-6.67.49-10.39.57-4.48.09-10.04.14-16.69.14-4.17,0-7.5-1.13-9.98-3.4-2.48-2.27-3.75-5.34-3.81-9.21v-37.92c.06-3.87,1.33-6.94,3.81-9.21,2.48-2.27,5.81-3.4,9.98-3.4,6.65,0,12.22.05,16.69.14,3.71.08,7.17.26,10.39.57,1.1.1,1.9,1.07,1.83,2.17l-.39,6.36c-.07,1.08-.96,1.92-2.05,1.92h-22.12c-1.51,0-2.6.36-3.27,1.09-.67.73-1,1.9-1,3.54v9.53h22.9c1.13,0,2.05.92,2.05,2.05v5.88c0,1.13-.92,2.05-2.05,2.05h-22.9v12.07c0,1.69.33,2.9,1,3.63.66.73,1.75,1.09,3.27,1.09h22.12c1.08,0,1.98.84,2.04,1.92Zm38.71-11.9v18.73c0,1.13-.92,2.05-2.05,2.05h-9.78c-1.13,0-2.05-.92-2.05-2.05v-18.73l-19.22-38.87c-.67-1.36.32-2.96,1.84-2.96h9.81c.8,0,1.53.47,1.87,1.2l9.89,21.75c.6,1.39,1.13,2.96,1.59,4.72.45,1.75.71,2.81.77,3.18h.91c.73-3.27,1.48-5.9,2.27-7.89l9.89-21.75c.33-.73,1.06-1.2,1.87-1.2h9.64c1.52,0,2.51,1.59,1.84,2.95l-19.06,38.87Z" style="fill:#4d4d4f;"/></svg>