<?xml version="1.0" encoding="UTF-8"?><svg id="Camada_1" xmlns="http://www.w3.org/2000/svg" viewBox="0 0 400 325.87"><path id="blue-icon" d="m177.83,169.89c-8.4,5.37-20.61-12.24-10.41-22.27.02-.02.05-.05.07-.07.13-.13.26-.25.4-.38.05-.04.1-.09.15-.13.12-.11.24-.21.37-.32.07-.06.15-.12.22-.18.11-.09.23-.18.34-.27.1-.07.2-.15.31-.22.1-.07.2-.15.31-.22.13-.09.27-.18.41-.27.08-.05.16-.11.24-.16.23-.14.46-.28.7-.42,0,0,.01,0,.02-.01.62-.35,1.24-.69,1.86-1.03.04-.02.08-.04.12-.07.61-.33,1.22-.66,1.84-.99.02-.01.05-.02.07-.04,17.75-9.44,37.17-16.68,33.43-33.08l-6.69-29.38-3.33-14.26c-.52-2.3.92-4.59,3.22-5.11,2.3-.52,4.59.92,5.11,3.22l2.84,12.13,8.96,39.33c6.61,29.02-5.51,31.78-40.58,54.19Zm8.75-50.16l-2.86-4.1c-1.58-2.26-9.1.26-16.79,5.63-7.69,5.37-12.65,11.56-11.07,13.82l2.86,4.1c1.58,2.26,9.1-.26,16.79-5.63,7.69-5.37,12.65-11.56,11.07-13.83Z" style="fill:#179cc8;"/><path id="purple-icon" d="m201.73,104.75c.52,2.3-.92,4.59-3.22,5.11-2.3.52-4.59-.92-5.11-3.22l-2.84-12.13-8.96-39.33c-6.61-29.02,5.51-31.78,40.58-54.19,8.4-5.37,20.61,12.24,10.41,22.27-.02.02-.05.05-.07.07-.13.13-.26.25-.4.38-.05.04-.1.09-.15.13-.12.11-.24.21-.37.32-.07.06-.15.12-.22.18-.11.09-.23.18-.34.27-.1.07-.2.15-.31.22-.1.07-.2.15-.31.22-.13.09-.27.18-.41.27-.08.05-.16.11-.24.16-.23.14-.46.28-.7.42,0,0-.01,0-.02.01-.62.35-1.24.69-1.86,1.03-.04.02-.08.04-.12.07-.61.33-1.22.66-1.84.99-.02.01-.05.02-.07.04-17.75,9.44-37.17,16.68-33.43,33.08l6.69,29.38,3.33,14.26Zm42.41-68.95l-2.86-4.1c-1.58-2.26-9.1.26-16.79,5.63-7.69,5.37-12.65,11.56-11.07,13.83l2.86,4.1c1.58,2.26,9.1-.26,16.79-5.63,7.69-5.37,12.65-11.56,11.07-13.82Z" style="fill:#542a7d;"/><path id="orange-icon" d="m221.2,92.05l-12.13,2.84-39.33,8.96c-29.01,6.61-31.78-5.51-54.19-40.58-5.37-8.4,12.24-20.61,22.27-10.41.02.02.05.05.07.07.13.13.25.26.38.4.04.05.09.1.13.15.11.12.21.24.32.37.06.07.12.15.18.22.09.11.18.23.27.34.07.1.15.2.22.31.07.1.15.2.22.31.09.13.18.27.27.41.05.08.11.16.16.24.14.23.28.46.42.7,0,0,0,.01.01.02.35.62.69,1.24,1.03,1.86.02.04.04.08.07.12.33.61.66,1.22.99,1.84.01.02.02.05.04.07,9.44,17.75,16.68,37.17,33.08,33.43l29.38-6.69,14.26-3.33c2.3-.52,4.59.92,5.11,3.22.52,2.3-.92,4.59-3.22,5.11Zm-55.49-20.02l4.1-2.86c2.26-1.58-.26-9.1-5.63-16.79-5.37-7.69-11.56-12.65-13.83-11.07l-4.1,2.86c-2.26,1.58.26,9.1,5.63,16.79,5.37,7.69,11.56,12.65,13.83,11.07Z" style="fill:#e1663b;"/><path id="red-icon" d="m262.18,118.03s-.05-.05-.07-.07c-.13-.13-.25-.26-.38-.4-.04-.05-.09-.1-.13-.15-.11-.12-.21-.24-.32-.37-.06-.07-.12-.15-.18-.22-.09-.11-.18-.23-.27-.34-.07-.1-.15-.2-.22-.31-.07-.1-.15-.2-.22-.31-.09-.13-.18-.27-.27-.41-.05-.08-.11-.16-.16-.24-.14-.23-.28-.46-.42-.7,0,0,0-.01-.01-.02-.35-.62-.69-1.24-1.03-1.86-.02-.04-.04-.08-.07-.12-.33-.61-.66-1.22-.99-1.84-.01-.02-.02-.05-.04-.07-9.44-17.75-16.68-37.17-33.08-33.43l-29.38,6.69-14.26,3.33c-2.3.52-4.59-.92-5.11-3.22-.52-2.3.92-4.59,3.22-5.11l12.13-2.84,39.33-8.96c29.02-6.61,31.78,5.51,54.19,40.58,5.37,8.4-12.24,20.61-22.27,10.41Zm-27.89-19.16l-4.1,2.86c-2.26,1.58.26,9.1,5.63,16.79,5.37,7.69,11.56,12.65,13.83,11.07l4.1-2.86c2.26-1.58-.26-9.1-5.63-16.79-5.37-7.69-11.56-12.65-13.83-11.07Z" style="fill:#db3a38;"/><path id="weAll" d="m68.71,233.68c-.19.74-.58,1.33-1.16,1.77-.59.43-1.29.65-2.09.65h-9.31c-.81,0-1.51-.23-2.09-.7-.59-.47-.95-1.07-1.07-1.82l-10.05-48.32c-.37-1.61-.87-4.03-1.49-7.26h-1.96l-1.4,7.26-9.96,48.32c-.19.74-.58,1.35-1.16,1.82-.59.47-1.29.7-2.09.7h-9.4c-.81,0-1.51-.23-2.09-.7-.59-.47-.95-1.04-1.07-1.72L.33,176.95c-.55-2.62,1.45-5.09,4.13-5.09h0c2.01,0,3.74,1.42,4.14,3.39l9.38,46.7c.31,1.43.62,3.26.93,5.49l.37,2.42h2.14c.5-2.92.99-5.55,1.49-7.91l9.96-47.39c.12-.81.48-1.46,1.07-1.96.59-.5,1.29-.74,2.09-.74h8.94c.81,0,1.49.25,2.05.74.56.5.93,1.15,1.12,1.96l9.96,47.39c.62,3.04,1.05,5.68,1.3,7.91h2.33c.56-3.72.96-6.33,1.21-7.82l9.46-46.79c.4-1.97,2.13-3.39,4.14-3.39h0c2.68,0,4.68,2.47,4.13,5.09l-11.96,56.73Zm81.83-1.31h0c.11,1.81-1.28,3.36-3.09,3.44-5.72.25-13.81.38-24.27.38-3.79,0-6.78-1.01-8.98-3.03-2.2-2.02-3.34-4.73-3.4-8.15v-42.08c.06-3.41,1.19-6.13,3.4-8.15,2.2-2.02,5.2-3.02,8.98-3.02,10.44,0,18.51.13,24.23.38,1.84.08,3.24,1.65,3.14,3.49h0c-.1,1.75-1.55,3.11-3.3,3.11h-22.67c-1.92,0-3.34.5-4.24,1.49-.9.99-1.35,2.55-1.35,4.66v13.96h24.44c1.83,0,3.31,1.48,3.31,3.31h0c0,1.83-1.48,3.31-3.31,3.31h-24.44v17.6c0,2.17.45,3.76,1.35,4.75.9.99,2.31,1.49,4.24,1.49h22.72c1.72,0,3.15,1.34,3.25,3.06Zm102.79-16.38h-26.44l-5.45,17.31c-.52,1.66-2.07,2.8-3.81,2.8h0c-2.73,0-4.65-2.67-3.79-5.26l18.92-56.75c.19-.68.56-1.22,1.12-1.63.56-.4,1.21-.6,1.96-.6h8.57c.74,0,1.4.2,1.96.6.56.4.93.95,1.12,1.63l18.92,56.75c.86,2.59-1.06,5.26-3.79,5.26h0c-1.74,0-3.29-1.13-3.81-2.79l-5.45-17.32Zm-2.24-7.08l-8.1-25.51c-.56-1.61-1.09-3.35-1.58-5.21h-2.61c-.5,1.86-1.02,3.6-1.58,5.21l-8.1,25.51h21.97Zm52.6,14.15c0,2.11.49,3.66,1.49,4.66.99.99,2.58,1.49,4.75,1.49h20.09c1.74,0,3.17,1.35,3.27,3.08h0c.11,1.82-1.28,3.37-3.09,3.47-5.27.29-12.46.43-21.58.43-4.53,0-7.84-1.09-9.91-3.26-2.08-2.17-3.12-5.12-3.12-8.84v-48.18c0-2.24,1.81-4.05,4.05-4.05h0c2.24,0,4.05,1.81,4.05,4.05v47.15Zm66.47,0c0,2.11.49,3.66,1.49,4.66.99.99,2.58,1.49,4.75,1.49h20.09c1.74,0,3.17,1.35,3.27,3.08h0c.11,1.82-1.28,3.37-3.09,3.47-5.27.29-12.46.43-21.58.43-4.53,0-7.84-1.09-9.91-3.26-2.08-2.17-3.12-5.12-3.12-8.84v-48.18c0-2.24,1.81-4.05,4.05-4.05h0c2.24,0,4.05,1.81,4.05,4.05v47.15Z" style="fill:#67686a;"/><path id="hockey" d="m59.61,251.86v70.14c0,1.36-1.1,2.46-2.46,2.46h-11.62c-1.36,0-2.46-1.1-2.46-2.46v-28.59c0-1.36-1.1-2.46-2.46-2.46h-21.63c-1.36,0-2.46,1.1-2.46,2.46v28.59c0,1.36-1.1,2.46-2.46,2.46H2.46c-1.36,0-2.46-1.1-2.46-2.46v-70.14c0-1.36,1.1-2.46,2.46-2.46h11.62c1.36,0,2.46,1.1,2.46,2.46v23.8c0,1.36,1.1,2.46,2.46,2.46h21.63c1.36,0,2.46-1.1,2.46-2.46v-23.8c0-1.36,1.1-2.46,2.46-2.46h11.62c1.36,0,2.46,1.1,2.46,2.46Zm63.9-.39c4.6,2.32,7.94,6.29,10.01,11.91,2.07,5.62,3.1,13.47,3.1,23.55s-1.03,17.93-3.1,23.55c-2.07,5.62-5.4,9.59-10.01,11.91-4.61,2.32-10.97,3.48-19.09,3.48s-14.47-1.16-19.04-3.48c-4.57-2.32-7.89-6.27-9.95-11.86-2.07-5.58-3.1-13.45-3.1-23.6s1.03-18.02,3.1-23.6c2.07-5.58,5.38-9.53,9.95-11.86,4.57-2.32,10.91-3.48,19.04-3.48s14.48,1.16,19.09,3.48Zm-28.01,12.18c-2.1,1.52-3.59,4.1-4.46,7.72-.87,3.63-1.31,8.81-1.31,15.55s.43,11.93,1.31,15.56c.87,3.63,2.36,6.2,4.46,7.72,2.1,1.52,5.07,2.29,8.92,2.29s6.82-.76,8.92-2.29c2.1-1.52,3.59-4.1,4.46-7.72.87-3.62,1.31-8.81,1.31-15.56s-.44-11.93-1.31-15.55c-.87-3.62-2.36-6.2-4.46-7.72-2.1-1.52-5.08-2.29-8.92-2.29s-6.82.76-8.92,2.29Zm95.12-15.01c2.54.29,5.23.77,8.07,1.44,1.2.28,1.99,1.44,1.85,2.66l-.91,7.95c-.15,1.28-1.26,2.24-2.55,2.18-5.39-.28-11.66-.41-18.81-.41-3.7,0-6.56.73-8.59,2.18-2.03,1.45-3.46,3.92-4.3,7.4-.84,3.48-1.25,8.45-1.25,14.9s.42,11.42,1.25,14.9c.83,3.48,2.27,5.95,4.3,7.4,2.03,1.45,4.89,2.18,8.59,2.18,5.51,0,9.88-.05,13.11-.16,2.39-.08,4.74-.25,7.07-.51,1.35-.15,2.58.8,2.73,2.15l.89,7.76c.14,1.2-.61,2.34-1.77,2.65-2.89.79-5.79,1.37-8.71,1.76-3.59.47-8.03.71-13.33.71-7.83,0-14.03-1.25-18.6-3.75-4.57-2.5-7.87-6.56-9.9-12.18-2.03-5.62-3.05-13.25-3.05-22.9s1.02-17.28,3.05-22.9c2.03-5.62,5.33-9.68,9.9-12.18,4.57-2.5,10.77-3.75,18.6-3.75,5.08,0,9.19.18,12.35.54Zm44.54,42.75h-6.42c.51,2.9.76,5.29.76,7.18v23.43c0,1.36-1.1,2.46-2.46,2.46h-11.62c-1.36,0-2.46-1.1-2.46-2.46v-70.14c0-1.36,1.1-2.46,2.46-2.46h11.62c1.36,0,2.46,1.1,2.46,2.46v18.75c0,3.19-.25,6.16-.76,8.92h6.31l18.42-28.99c.45-.71,1.23-1.14,2.07-1.14h12.08c1.95,0,3.12,2.16,2.06,3.79l-16.91,26.12c-1.23,2.18-3.04,4.17-5.44,5.98v.44c1.16.8,2.32,1.79,3.48,2.99,1.16,1.2,2.1,2.41,2.83,3.64l17.49,28.34c1.01,1.64-.17,3.75-2.09,3.75h-12.7c-.86,0-1.66-.45-2.11-1.19l-19.08-31.87Zm95.32,22.43l.47,7.52c.08,1.32-.88,2.48-2.2,2.6-3.85.36-8,.59-12.45.68-5.37.11-12.04.16-20.01.16-5,0-8.99-1.36-11.96-4.08-2.98-2.72-4.5-6.4-4.57-11.04v-45.47c.07-4.64,1.59-8.32,4.57-11.04,2.97-2.72,6.96-4.08,11.96-4.08,7.98,0,14.65.05,20.01.16,4.45.09,8.6.32,12.45.68,1.31.12,2.28,1.28,2.2,2.6l-.47,7.63c-.08,1.3-1.15,2.3-2.45,2.3h-26.52c-1.81,0-3.12.43-3.92,1.31-.8.87-1.2,2.28-1.2,4.24v11.42h27.46c1.36,0,2.46,1.1,2.46,2.46v7.05c0,1.36-1.1,2.46-2.46,2.46h-27.46v14.47c0,2.03.4,3.48,1.2,4.35.8.87,2.1,1.31,3.92,1.31h26.52c1.3,0,2.37,1.01,2.45,2.3Zm46.41-14.27v22.45c0,1.36-1.1,2.46-2.46,2.46h-11.73c-1.36,0-2.46-1.1-2.46-2.46v-22.45l-23.05-46.6c-.81-1.63.38-3.55,2.2-3.55h11.76c.96,0,1.84.56,2.24,1.44l11.85,26.08c.72,1.67,1.36,3.55,1.9,5.66.54,2.1.85,3.37.92,3.81h1.09c.87-3.92,1.78-7.07,2.72-9.46l11.85-26.08c.4-.88,1.27-1.44,2.24-1.44h11.56c1.82,0,3.01,1.91,2.21,3.54l-22.85,46.61Z" style="fill:#4d4d4f;"/></svg>