<?xml version="1.0" encoding="utf-8"?>
<!-- Generator: Adobe Illustrator 27.2.0, SVG Export Plug-In . SVG Version: 6.00 Build 0)  -->
<svg version="1.1" id="Layer_1" xmlns="http://www.w3.org/2000/svg" xmlns:xlink="http://www.w3.org/1999/xlink" x="0px" y="0px"
	 viewBox="0 0 459.3 112" style="enable-background:new 0 0 459.3 112;" xml:space="preserve">
<style type="text/css">
	.st0{fill:#FFFFFF;}
</style>
<path id="blue-icon" class="st0" d="M3.5,83.8C-2.8,82.4-0.3,68.6,9,68.7h0.1c0.1,0,0.2,0,0.4,0h0.1c0.1,0,0.2,0,0.3,0
	c0.1,0,0.1,0,0.2,0c0.1,0,0.2,0,0.3,0c0.1,0,0.2,0,0.2,0s0.2,0,0.2,0c0.1,0,0.2,0,0.3,0.1c0.1,0,0.1,0,0.2,0c0.2,0,0.3,0.1,0.5,0.1
	h0c0.4,0.1,0.9,0.2,1.3,0.4c0,0,0.1,0,0.1,0c0.4,0.1,0.9,0.3,1.3,0.4c0,0,0,0,0.1,0c12.6,3.8,25,9.5,30.8,0.2L56,53.4l5.1-8.2
	c0.8-1.3,2.5-1.7,3.9-0.9c1.3,0.8,1.7,2.5,0.9,3.9l-4.3,6.9L47.5,77.5C37.1,94,30.2,89.7,3.5,83.8L3.5,83.8L3.5,83.8z M30.8,64.7
	l0.6-3.2c0.3-1.8-4.3-4.1-10.4-5.2C15,55.2,9.8,55.8,9.5,57.5l-0.6,3.2c-0.3,1.8,4.3,4.1,10.4,5.2C25.4,67,30.5,66.4,30.8,64.7z"/>
<path id="purple-icon" class="st0" d="M44.8,64.7C44,66,42.3,66.4,41,65.6s-1.7-2.5-0.9-3.9l4.3-6.9l14.1-22.4
	c10.4-16.5,17.3-12.2,43.9-6.3c6.4,1.4,3.9,15.2-5.5,15.1h-0.1c-0.1,0-0.2,0-0.4,0h-0.1c-0.1,0-0.2,0-0.3,0c-0.1,0-0.1,0-0.2,0
	c-0.1,0-0.2,0-0.3,0c-0.1,0-0.2,0-0.2,0c-0.1,0-0.2,0-0.2,0c-0.1,0-0.2,0-0.3-0.1c-0.1,0-0.1,0-0.2,0c-0.2,0-0.3-0.1-0.5-0.1h0
	c-0.4-0.1-0.9-0.2-1.3-0.4c0,0-0.1,0-0.1,0c-0.4-0.1-0.9-0.3-1.3-0.4c0,0,0,0-0.1,0c-12.6-3.8-24.9-9.5-30.8-0.2L49.9,56.6
	L44.8,64.7L44.8,64.7L44.8,64.7z M96.4,52.4l0.6-3.2c0.3-1.8-4.3-4.1-10.4-5.2c-6.1-1.1-11.2-0.5-11.5,1.3l-0.6,3.2
	c-0.3,1.8,4.3,4.1,10.4,5.2C90.9,54.8,96.1,54.2,96.4,52.4z"/>
<path id="orange-icon" class="st0" d="M59.7,67.8l-6.9-4.3L30.4,49.5C13.9,39.1,18.2,32.2,24.1,5.6c1.4-6.4,15.2-3.9,15.1,5.5v0.1
	c0,0.1,0,0.2,0,0.4v0.1c0,0.1,0,0.2,0,0.3c0,0.1,0,0.1,0,0.2c0,0.1,0,0.2,0,0.3c0,0.1,0,0.2,0,0.2c0,0.1,0,0.2,0,0.2
	c0,0.1,0,0.2-0.1,0.3c0,0.1,0,0.1,0,0.2c0,0.2-0.1,0.3-0.1,0.5v0c-0.1,0.4-0.2,0.9-0.4,1.3c0,0,0,0.1,0,0.1
	c-0.1,0.4-0.3,0.9-0.4,1.3c0,0,0,0,0,0c-3.8,12.6-9.5,25-0.2,30.8l16.7,10.5l8.2,5.1c1.3,0.8,1.7,2.6,0.9,3.9
	C62.8,68.3,61.1,68.7,59.7,67.8L59.7,67.8L59.7,67.8z M43.3,32.9l3.2,0.6c1.8,0.3,4.1-4.3,5.2-10.4c1.1-6.1,0.5-11.2-1.3-11.5
	l-3.2-0.6c-1.8-0.3-4.1,4.3-5.2,10.4C40.9,27.4,41.5,32.5,43.3,32.9z"/>
<path id="red-icon" class="st0" d="M66.7,98.9L66.7,98.9c0-0.2,0-0.3,0-0.4v-0.1c0-0.1,0-0.2,0-0.3c0-0.1,0-0.1,0-0.2
	c0-0.1,0-0.2,0-0.3c0-0.1,0-0.2,0-0.2c0-0.1,0-0.2,0-0.2c0-0.1,0-0.2,0.1-0.3c0-0.1,0-0.1,0-0.2c0-0.2,0.1-0.3,0.1-0.5v0
	c0.1-0.4,0.2-0.9,0.4-1.3c0,0,0-0.1,0-0.1c0.1-0.4,0.3-0.9,0.4-1.3c0,0,0,0,0-0.1c3.8-12.6,9.5-25,0.2-30.8L51.3,51.9l-8.2-5.1
	c-1.3-0.8-1.7-2.5-0.9-3.9s2.5-1.7,3.9-0.9l6.9,4.3l22.4,14.1c16.5,10.4,12.2,17.3,6.3,43.9C80.4,110.7,66.6,108.2,66.7,98.9
	L66.7,98.9L66.7,98.9z M62.6,77.1l-3.2-0.6c-1.8-0.3-4.1,4.3-5.2,10.4c-1.1,6.1-0.5,11.2,1.3,11.5l3.2,0.6c1.8,0.3,4.1-4.3,5.2-10.4
	C65,82.6,64.4,77.4,62.6,77.1z"/>
<path id="hockey" class="st0" d="M174.7,50.1v58.6c0,1.1-0.9,2.1-2.1,2.1h-9.7c-1.1,0-2.1-0.9-2.1-2.1V84.9c0-1.1-0.9-2.1-2.1-2.1
	h-18.1c-1.1,0-2.1,0.9-2.1,2.1v23.9c0,1.1-0.9,2.1-2.1,2.1h-9.7c-1.1,0-2.1-0.9-2.1-2.1V50.1c0-1.1,0.9-2,2.1-2h9.7
	c1.1,0,2.1,0.9,2.1,2V70c0,1.1,0.9,2.1,2.1,2.1h18.1c1.1,0,2.1-0.9,2.1-2.1V50.1c0-1.1,0.9-2,2.1-2h9.7
	C173.8,48.1,174.7,49,174.7,50.1z M228.1,49.8c3.9,1.9,6.6,5.3,8.4,10s2.6,11.3,2.6,19.7s-0.9,15-2.6,19.7c-1.7,4.7-4.5,8-8.4,10
	c-3.9,1.9-9.2,2.9-16,2.9s-12.1-1-15.9-2.9s-6.6-5.2-8.3-9.9c-1.7-4.7-2.6-11.2-2.6-19.7s0.9-15.1,2.6-19.7s4.5-8,8.3-9.9
	s9.1-2.9,15.9-2.9S224.2,47.9,228.1,49.8C228.1,49.8,228.1,49.8,228.1,49.8z M204.7,60c-1.8,1.3-3,3.4-3.7,6.5s-1.1,7.4-1.1,13
	s0.4,10,1.1,13s2,5.2,3.7,6.5c1.8,1.3,4.2,1.9,7.5,1.9s5.7-0.6,7.5-1.9c1.8-1.3,3-3.4,3.7-6.5c0.7-3,1.1-7.4,1.1-13s-0.4-10-1.1-13
	s-2-5.2-3.7-6.5c-1.8-1.3-4.2-1.9-7.5-1.9S206.4,58.7,204.7,60z M284.2,47.4c2.1,0.2,4.4,0.7,6.8,1.2c1,0.2,1.7,1.2,1.5,2.2
	l-0.8,6.7c-0.1,1.1-1.1,1.9-2.1,1.8c-4.5-0.2-9.8-0.3-15.7-0.3c-3.1,0-5.5,0.6-7.2,1.8c-1.7,1.2-2.9,3.3-3.6,6.2
	c-0.7,2.9-1,7.1-1,12.5s0.4,9.6,1,12.5c0.7,2.9,1.9,5,3.6,6.2c1.7,1.2,4.1,1.8,7.2,1.8c4.6,0,8.3-0.1,11-0.1c2-0.1,4-0.2,5.9-0.4
	c1.1-0.1,2.1,0.7,2.3,1.8l0.8,6.5c0.1,1-0.5,1.9-1.5,2.2c-2.4,0.7-4.8,1.2-7.3,1.5c-3,0.4-6.7,0.6-11.1,0.6
	c-6.5,0-11.7-1.1-15.5-3.1c-3.8-2.1-6.6-5.5-8.3-10.2c-1.7-4.7-2.6-11.1-2.6-19.1s0.9-14.4,2.6-19.1s4.5-8.1,8.3-10.2
	c3.8-2.1,9-3.1,15.5-3.1C278.1,47,281.5,47.1,284.2,47.4L284.2,47.4L284.2,47.4z M321.4,83.2h-5.4c0.4,2.4,0.6,4.4,0.6,6v19.6
	c0,1.1-0.9,2.1-2,2.1H305c-1.1,0-2-0.9-2-2.1V50.1c0-1.1,0.9-2,2-2h9.7c1.1,0,2,0.9,2,2v15.7c0,2.7-0.2,5.2-0.6,7.5h5.3L336.7,49
	c0.4-0.6,1-1,1.7-1h10.1c1.6,0,2.6,1.8,1.7,3.2l-14.1,21.8c-1,1.8-2.5,3.5-4.5,5v0.4c1,0.7,1.9,1.5,2.9,2.5s1.8,2,2.4,3.1l14.6,23.7
	c0.8,1.4-0.1,3.1-1.8,3.1h-10.6c-0.7,0-1.4-0.4-1.8-1L321.4,83.2L321.4,83.2L321.4,83.2z M401.1,102l0.4,6.3
	c0.1,1.1-0.7,2.1-1.8,2.2c-3.2,0.3-6.7,0.5-10.4,0.6c-4.5,0.1-10.1,0.1-16.7,0.1c-4.2,0-7.5-1.1-10-3.4c-2.5-2.3-3.8-5.3-3.8-9.2
	v-38c0.1-3.9,1.3-7,3.8-9.2c2.5-2.3,5.8-3.4,10-3.4c6.7,0,12.2,0,16.7,0.1c3.7,0.1,7.2,0.3,10.4,0.6c1.1,0.1,1.9,1.1,1.8,2.2
	l-0.4,6.4c-0.1,1.1-1,1.9-2,1.9h-22.2c-1.5,0-2.6,0.4-3.3,1.1c-0.7,0.7-1,1.9-1,3.5v9.5h23c1.1,0,2,0.9,2,2.1v5.9
	c0,1.1-0.9,2.1-2,2.1h-23v12.1c0,1.7,0.3,2.9,1,3.6c0.7,0.7,1.8,1.1,3.3,1.1h22.2C400.1,100,401.1,100.9,401.1,102L401.1,102
	L401.1,102z M439.9,90v18.8c0,1.1-0.9,2.1-2,2.1h-9.8c-1.1,0-2-0.9-2-2.1V90l-19.3-39c-0.7-1.4,0.3-3,1.8-3h9.8
	c0.8,0,1.5,0.5,1.9,1.2l9.9,21.8c0.6,1.4,1.1,3,1.6,4.7c0.5,1.8,0.7,2.8,0.8,3.2h0.9c0.7-3.3,1.5-5.9,2.3-7.9l9.9-21.8
	c0.3-0.7,1.1-1.2,1.9-1.2h9.7c1.5,0,2.5,1.6,1.8,3L439.9,90C439.9,90,439.9,90,439.9,90z"/>
<path id="WeAreAll" class="st0" d="M165.5,36c-0.1,0.5-0.4,0.8-0.8,1.1s-0.8,0.4-1.3,0.4h-6c-0.5,0-0.9-0.2-1.3-0.5
	c-0.4-0.3-0.6-0.7-0.8-1.2L150,8.7c-0.4-1.9-0.6-3.3-0.8-4.2h-1.1l-0.3,1.4c-0.2,1.2-0.4,2.1-0.5,2.8L142,36
	c-0.1,0.5-0.3,0.8-0.7,1.2c-0.4,0.3-0.9,0.5-1.4,0.5h-6c-0.5,0-0.9-0.1-1.3-0.4s-0.6-0.7-0.7-1.1L125,1.6c-0.1-0.6,0.3-1.2,0.9-1.2
	h3.7c0.5,0,0.9,0.3,0.9,0.8l5.2,27.5c0.2,1.1,0.4,2.4,0.5,3.6l0.2,1.1h1.2c0.2-1.5,0.4-3.1,0.8-4.7l5.3-26.5c0.1-0.5,0.3-1,0.7-1.3
	s0.8-0.5,1.3-0.5h5.8c0.5,0,0.9,0.2,1.3,0.5s0.6,0.8,0.7,1.3l5.3,26.5c0.3,1.4,0.6,3,0.8,4.7h1.2l0.3-2.3c0.1-1.1,0.3-1.9,0.4-2.4
	l5.2-27.6c0.1-0.5,0.5-0.8,0.9-0.8h3.7c0.6,0,1.1,0.6,0.9,1.2L165.5,36L165.5,36L165.5,36z M207,34l0.1,2.3c0,0.5-0.4,1-0.9,1
	c-1.9,0.1-3.8,0.2-5.9,0.3c-2.4,0-5.4,0.1-9.1,0.1c-2.3,0-4.1-0.6-5.4-1.8c-1.3-1.2-2-2.8-2-4.9V7c0-2,0.7-3.7,2-4.9
	c1.3-1.2,3.1-1.8,5.4-1.8c3.6,0,6.6,0,9.1,0.1c2.1,0.1,4,0.1,5.9,0.3c0.5,0,0.9,0.5,0.9,1L207,4.1c0,0.5-0.5,0.9-1,0.9h-13.8
	c-1.1,0-1.8,0.3-2.3,0.8c-0.4,0.5-0.7,1.4-0.7,2.7v6.4c0,0.5,0.4,1,1,1h13.7c0.5,0,1,0.4,1,1v2.4c0,0.5-0.4,1-1,1h-13.7
	c-0.5,0-1,0.4-1,1v8.5c0,1.2,0.2,2.1,0.7,2.7s1.2,0.8,2.3,0.8H206C206.5,33.1,206.9,33.5,207,34z M254.7,26.4h-13.4
	c-0.4,0-0.8,0.3-0.9,0.7l-3,9.8c-0.1,0.4-0.5,0.7-0.9,0.7h-3.4c-0.7,0-1.1-0.6-0.9-1.3l11.2-34.4c0.1-0.5,0.4-0.8,0.7-1.1
	c0.3-0.2,0.8-0.4,1.3-0.4h5.5c0.5,0,0.9,0.1,1.2,0.4s0.6,0.6,0.7,1L264,36.3c0.2,0.6-0.3,1.3-0.9,1.3h-3.5c-0.4,0-0.8-0.3-0.9-0.7
	l-3-9.8C255.5,26.7,255.2,26.4,254.7,26.4z M252.7,21.7c0.6,0,1.1-0.6,0.9-1.2l-3.9-12.8L249,5.3c-0.1-0.4-0.5-0.7-0.9-0.7l0,0
	c-0.4,0-0.8,0.3-0.9,0.7l-0.7,2.3l-4,12.8c-0.2,0.6,0.3,1.3,0.9,1.3L252.7,21.7L252.7,21.7z M300,37.6h-3.7c-0.4,0-0.8-0.3-0.9-0.7
	l-3-10.8c-0.4-1.3-1-2.3-1.8-2.9s-1.7-0.9-2.9-0.9c-3,0-5.2,0-6.6,0c-0.5,0-1,0.4-1,1v13.4c0,0.5-0.4,1-1,1h-3.4c-0.5,0-1-0.4-1-1
	V1.4c0-0.5,0.4-0.9,0.9-1c1.6-0.2,3.2-0.3,4.6-0.3C282,0,284.5,0,287.7,0c3,0,5.4,0.3,7.1,1c1.8,0.6,3,1.8,3.9,3.3
	c0.8,1.6,1.2,3.7,1.2,6.5c0,3-0.5,5.2-1.6,6.7c-1.1,1.5-2.8,2.4-5.2,2.7v0.3c1,0.3,2,0.9,2.9,1.8c0.9,0.9,1.5,2.1,1.8,3.6l3.1,10.5
	C301.2,37,300.7,37.6,300,37.6L300,37.6L300,37.6z M291.8,17c1-0.4,1.7-1.1,2.1-2s0.6-2.3,0.6-4s-0.2-3-0.6-3.9
	c-0.4-0.9-1.1-1.6-2.1-1.9c-1-0.4-2.4-0.6-4.2-0.6c-2.9,0-5.1,0-6.6,0c-0.5,0-1,0.4-1,1v11.1c0,0.5,0.4,1,1,1h6.5
	C289.4,17.6,290.8,17.4,291.8,17L291.8,17L291.8,17z M336.3,34l0.1,2.3c0,0.5-0.4,1-0.9,1c-1.9,0.1-3.8,0.2-5.9,0.3
	c-2.4,0-5.4,0.1-9.1,0.1c-2.3,0-4.1-0.6-5.4-1.8s-2-2.8-2-4.9V7c0-2,0.7-3.7,2-4.9s3.1-1.8,5.4-1.8c3.6,0,6.6,0,9.1,0.1
	c2.1,0.1,4,0.1,5.9,0.3c0.5,0,0.9,0.5,0.9,1l-0.1,2.3c0,0.5-0.5,0.9-1,0.9h-13.8c-1.1,0-1.8,0.3-2.3,0.8c-0.5,0.5-0.7,1.4-0.7,2.7
	v6.4c0,0.5,0.4,1,1,1h13.7c0.5,0,1,0.4,1,1v2.4c0,0.5-0.4,1-1,1h-13.7c-0.5,0-1,0.4-1,1v8.5c0,1.2,0.2,2.1,0.7,2.7s1.2,0.8,2.3,0.8
	h13.8C335.9,33.1,336.3,33.5,336.3,34L336.3,34z M384.1,26.4h-13.4c-0.4,0-0.8,0.3-0.9,0.7l-3,9.8c-0.1,0.4-0.5,0.7-0.9,0.7h-3.4
	c-0.7,0-1.1-0.6-0.9-1.3l11.2-34.4c0.1-0.5,0.4-0.8,0.7-1.1c0.3-0.2,0.8-0.4,1.3-0.4h5.5c0.5,0,0.9,0.1,1.2,0.4s0.6,0.6,0.7,1
	l11.2,34.4c0.2,0.6-0.3,1.3-0.9,1.3H389c-0.4,0-0.8-0.3-0.9-0.7l-3-9.8C384.9,26.6,384.5,26.4,384.1,26.4L384.1,26.4L384.1,26.4z
	 M382.1,21.7c0.6,0,1.1-0.6,0.9-1.2l-3.9-12.8l-0.7-2.3c-0.1-0.4-0.5-0.7-0.9-0.7l0,0c-0.4,0-0.8,0.3-0.9,0.7l-0.7,2.3l-4,12.8
	c-0.2,0.6,0.3,1.3,0.9,1.3L382.1,21.7L382.1,21.7z M409.4,29.6c0,1.2,0.2,2.1,0.8,2.7s1.4,0.8,2.6,0.8h12.3c0.5,0,0.9,0.4,1,0.9
	l0.1,2.3c0,0.5-0.4,1-0.9,1c-3.4,0.3-7.8,0.4-13.4,0.4s-7.9-2.4-7.9-7.3V1.5c0-0.5,0.4-1,1-1h3.4c0.5,0,1,0.4,1,1V29.6L409.4,29.6z
	 M442.5,29.6c0,1.2,0.2,2.1,0.8,2.7s1.4,0.8,2.6,0.8h12.3c0.5,0,0.9,0.4,1,0.9l0.1,2.3c0,0.5-0.4,1-0.9,1c-3.4,0.3-7.8,0.4-13.4,0.4
	s-7.9-2.4-7.9-7.3V1.5c0-0.5,0.4-1,1-1h3.4c0.5,0,1,0.4,1,1V29.6L442.5,29.6z"/>
</svg>
